<svg width="81" height="81" viewBox="0 0 81 81" fill="none" xmlns="http://www.w3.org/2000/svg">
<path d="M80.2083 40.6128C80.2083 62.5639 62.4134 80.3588 40.4623 80.3588C18.5112 80.3588 0.716248 62.5639 0.716248 40.6128C0.716248 18.6616 18.5112 0.86673 40.4623 0.86673C62.4134 0.86673 80.2083 18.6616 80.2083 40.6128ZM12.6014 40.6128C12.6014 55.9999 25.0751 68.4737 40.4623 68.4737C55.8494 68.4737 68.3232 55.9999 68.3232 40.6128C68.3232 25.2256 55.8494 12.7519 40.4623 12.7519C25.0751 12.7519 12.6014 25.2256 12.6014 40.6128Z" fill="url(#paint0_angular_1_180)"/>
<circle cx="40.8598" cy="74.3969" r="5.96191" fill="#FF4D00"/>
<defs>
<radialGradient id="paint0_angular_1_180" cx="0" cy="0" r="1" gradientUnits="userSpaceOnUse" gradientTransform="translate(40.4623 40.6128) rotate(90) scale(39.746)">
<stop stop-color="#FF4D00"/>
<stop offset="0.175675" stop-color="#FF4D00"/>
<stop offset="1" stop-color="white" stop-opacity="0"/>
</radialGradient>
</defs>
</svg>
