<svg width="255" height="140" viewBox="0 0 255 140" fill="none" xmlns="http://www.w3.org/2000/svg">
<path fill-rule="evenodd" clip-rule="evenodd" d="M237.168 22.8233C234.295 14.9291 232.858 10.982 230.225 8.52602C227.908 6.36566 224.967 4.99417 221.823 4.60813C218.248 4.16926 214.301 5.60587 206.407 8.47911L23.1671 75.173C15.2729 78.0463 11.3259 79.4829 8.86987 82.1166C6.70951 84.4333 5.33803 87.3745 4.95198 90.5186C4.51311 94.0929 5.94973 98.04 8.82297 105.934L12.9272 117.21C15.8004 125.105 17.2371 129.052 19.8708 131.508C22.1875 133.668 25.1287 135.04 28.2727 135.426C31.8471 135.864 35.7942 134.428 43.6883 131.555L226.928 64.8607C234.823 61.9874 238.77 60.5508 241.226 57.9171C243.386 55.6004 244.757 52.6592 245.144 49.5151C245.582 45.9408 244.146 41.9937 241.273 34.0996L237.168 22.8233Z" fill="#007AFF"/>
<path fill-rule="evenodd" clip-rule="evenodd" d="M244.72 43.4866L230.597 48.6267C233.242 55.8924 241.276 59.6386 248.541 56.9941L254.179 54.942L254.067 54.6328C252.311 53.9935 250.691 53.0055 249.309 51.7166C247.501 50.0304 246.297 47.5912 244.72 43.4866Z" fill="#007AFF"/>
<path d="M23.4139 100.623L30.2469 98.1364L29.7869 96.8728L24.358 98.8488L20.7212 88.8567L19.3172 89.3677L23.4139 100.623ZM35.4177 96.4222C35.9117 96.2424 36.3336 96.0182 36.6834 95.7495C37.0365 95.4738 37.3199 95.1763 37.5335 94.8571C37.7452 94.5327 37.8938 94.2048 37.9792 93.8734C38.068 93.5348 38.0968 93.2093 38.0655 92.8968L38.0584 92.8287L36.7011 93.3227L36.6955 93.4043C36.6833 93.5972 36.6155 93.8073 36.4921 94.0348C36.3688 94.2622 36.1857 94.4791 35.9427 94.6853C35.6998 94.8915 35.3885 95.0637 35.0089 95.2018C34.4993 95.3873 34.0166 95.4364 33.5608 95.3491C33.1031 95.2565 32.6962 95.0366 32.3401 94.6892C31.9821 94.3366 31.6942 93.8613 31.4766 93.2633L31.2807 92.725C31.0517 92.0958 30.9626 91.5276 31.0135 91.0202C31.0644 90.5129 31.2269 90.0857 31.5011 89.7386C31.7785 89.3844 32.1434 89.125 32.5958 88.9603C33.0482 88.7956 33.4874 88.7565 33.9134 88.8429C34.3375 88.9241 34.726 89.1419 35.0788 89.4964C35.4316 89.8509 35.7282 90.3584 35.9686 91.0188L36.1645 91.557L36.4747 90.3222L30.4296 92.5225L30.8242 93.6067L37.5636 91.1538L37.3705 90.6234C37.0658 89.7861 36.6507 89.1069 36.1253 88.5855C35.6032 88.0571 35.0022 87.7164 34.3223 87.5634C33.6475 87.4085 32.928 87.4702 32.1636 87.7484C31.4043 88.0248 30.8085 88.4507 30.3761 89.0262C29.9436 89.6017 29.6907 90.2739 29.6171 91.0426C29.5488 91.8095 29.6727 92.6272 29.9888 93.4956L29.9916 93.5034C30.3115 94.3822 30.7431 95.0908 31.2865 95.6291C31.8332 96.1604 32.4569 96.4987 33.1576 96.6441C33.8635 96.7877 34.6169 96.7137 35.4177 96.4222ZM44.0681 93.1766C44.2033 93.1274 44.3331 93.0713 44.4574 93.0084C44.5817 92.9455 44.7051 92.8799 44.8275 92.8118L44.4073 91.6574C44.2863 91.7132 44.1826 91.7598 44.0961 91.7972C44.0147 91.8327 43.9143 91.8722 43.7947 91.9157C43.3579 92.0747 43.0071 92.0817 42.7423 91.9366C42.4756 91.7863 42.2523 91.4642 42.0725 90.9702L40.3407 86.2121L42.1815 85.5421L41.7727 84.4188L39.9319 85.0888L39.1398 82.9126L37.7358 83.4236L38.5278 85.5999L37.2018 86.0825L37.6106 87.2057L38.9367 86.7231L40.7934 91.8244C41.0849 92.6252 41.4864 93.1298 41.998 93.3382C42.5149 93.5446 43.2049 93.4908 44.0681 93.1766ZM44.9259 85.0732L46.0492 84.6644L44.5976 80.1664L43.1467 80.6945L44.9259 85.0732ZM54.5438 89.4609C55.1834 89.2281 55.7166 88.9133 56.1434 88.5165C56.5754 88.1178 56.8705 87.6747 57.0288 87.1872C57.1851 86.6945 57.1725 86.1986 56.9908 85.6994L56.9851 85.6838C56.7655 85.0806 56.3955 84.6705 55.8748 84.4537C55.3594 84.2349 54.6715 84.1732 53.8111 84.2685L52.4027 84.4277C52.0448 84.4638 51.742 84.4651 51.4942 84.4316C51.2465 84.3981 51.0467 84.3265 50.8949 84.2169C50.7431 84.1072 50.6331 83.9588 50.565 83.7716L50.5593 83.756C50.4685 83.5064 50.4644 83.2605 50.547 83.0184C50.6297 82.7763 50.7821 82.556 51.0043 82.3573C51.2245 82.1535 51.5011 81.991 51.8339 81.8699C52.3435 81.6844 52.7947 81.6379 53.1877 81.7305C53.5806 81.823 53.8818 82.0196 54.0913 82.3203L55.4252 81.8348C55.1962 81.3999 54.8798 81.0645 54.476 80.8287C54.0773 80.591 53.6161 80.4645 53.0922 80.449C52.5717 80.4265 52.0176 80.5222 51.43 80.736C50.8372 80.9518 50.343 81.2524 49.9474 81.6378C49.5518 82.0233 49.2833 82.4508 49.1421 82.9203C49.0061 83.3879 49.0232 83.8557 49.1936 84.3237L49.1964 84.3315C49.3422 84.7319 49.5496 85.051 49.8187 85.2888C50.0859 85.5213 50.4254 85.6774 50.8372 85.7572C51.2471 85.8318 51.7374 85.8359 52.308 85.7696L53.7242 85.6074C54.2897 85.543 54.7237 85.5705 55.0263 85.69C55.327 85.8044 55.5295 86.0045 55.6336 86.2905L55.6392 86.3061C55.732 86.5609 55.7311 86.8174 55.6366 87.0756C55.5403 87.3286 55.3673 87.5652 55.1177 87.7856C54.8715 87.9989 54.5585 88.1747 54.1789 88.3128C53.6433 88.5078 53.1703 88.5592 52.7599 88.4672C52.3495 88.3751 52.0237 88.1757 51.7824 87.8689L50.394 88.3742C50.6145 88.8181 50.9302 89.1596 51.3411 89.3987C51.7572 89.6359 52.2395 89.7637 52.7879 89.782C53.3345 89.795 53.9198 89.688 54.5438 89.4609ZM69.0006 87.388C69.765 87.1097 70.3816 86.741 70.8505 86.2818C71.3213 85.8278 71.6232 85.3145 71.7564 84.7419C71.8947 84.1674 71.8504 83.5682 71.6232 82.9441L68.6054 74.6525L67.2481 75.1465L67.7535 76.535L67.6599 76.569C67.3728 76.3143 67.0576 76.1198 66.7144 75.9857C66.3763 75.8496 66.0181 75.7797 65.6399 75.7761C65.2616 75.7724 64.8749 75.8425 64.4797 75.9863C63.7465 76.2532 63.179 76.66 62.7773 77.2066C62.3737 77.7481 62.138 78.3786 62.0701 79.0982C62.0056 79.8107 62.1162 80.5596 62.402 81.3448L62.4076 81.3604C62.6934 82.1456 63.0901 82.7904 63.5975 83.2947C64.105 83.799 64.6847 84.1298 65.3367 84.2871C65.9921 84.4372 66.6811 84.3808 67.4039 84.1177C67.7888 83.9776 68.1277 83.7924 68.4208 83.5621C68.7119 83.3265 68.9504 83.0513 69.1361 82.7364C69.3218 82.4214 69.4472 82.0784 69.5123 81.7072L69.6372 81.6618L70.2561 83.3623C70.4813 83.9811 70.4422 84.5371 70.1388 85.0303C69.8425 85.5268 69.3174 85.9123 68.5634 86.1867C67.9601 86.4063 67.4387 86.4783 66.999 86.4028C66.5611 86.3325 66.2481 86.1519 66.0598 85.8612L66.0492 85.8563L64.6452 86.3673L64.6324 86.3808C64.8718 86.8119 65.2021 87.1451 65.6234 87.3804C66.0519 87.6191 66.5523 87.7402 67.1249 87.7438C67.6993 87.7526 68.3246 87.634 69.0006 87.388ZM67.2631 82.8086C66.7431 82.9978 66.2576 83.0391 65.8065 82.9324C65.3588 82.8186 64.9611 82.5835 64.6135 82.2271C64.2711 81.8688 63.9986 81.4115 63.7961 80.8551L63.7904 80.8395C63.5879 80.2831 63.5017 79.755 63.5318 79.2552C63.5671 78.7536 63.7197 78.3153 63.9895 77.9403C64.2646 77.5634 64.6621 77.2803 65.1821 77.091C65.7021 76.9018 66.1912 76.8621 66.6494 76.9722C67.1128 77.0803 67.5218 77.3142 67.8765 77.6739C68.2364 78.0317 68.5176 78.4888 68.7201 79.0452L68.7258 79.0608C68.9283 79.6172 69.0058 80.1455 68.9582 80.6458C68.9158 81.1441 68.7518 81.5836 68.4664 81.9643C68.1842 82.3379 67.7832 82.6193 67.2631 82.8086ZM77.6791 81.0403C78.1731 80.8605 78.595 80.6363 78.9448 80.3676C79.2979 80.0919 79.5812 79.7944 79.7949 79.4752C80.0066 79.1508 80.1552 78.8229 80.2406 78.4915C80.3294 78.1529 80.3582 77.8274 80.3269 77.5149L80.3198 77.4468L78.9625 77.9408L78.9569 78.0224C78.9446 78.2153 78.8769 78.4254 78.7535 78.6529C78.6302 78.8803 78.4471 79.0972 78.2041 79.3034C77.9612 79.5096 77.6499 79.6818 77.2703 79.8199C76.7606 80.0054 76.2779 80.0545 75.8222 79.9672C75.3645 79.8746 74.9576 79.6547 74.6015 79.3073C74.2434 78.9547 73.9556 78.4794 73.738 77.8814L73.5421 77.3432C73.313 76.7139 73.224 76.1457 73.2749 75.6384C73.3258 75.131 73.4883 74.7038 73.7624 74.3567C74.0399 74.0025 74.4048 73.7431 74.8572 73.5784C75.3096 73.4138 75.7488 73.3746 76.1748 73.461C76.5989 73.5422 76.9874 73.7601 77.3402 74.1145C77.693 74.469 77.9896 74.9765 78.23 75.6369L78.4259 76.1751L78.7361 74.9403L72.691 77.1406L73.0856 78.2248L79.825 75.7719L79.6319 75.2415C79.3272 74.4042 78.9121 73.725 78.3867 73.2036C77.8646 72.6752 77.2636 72.3345 76.5836 72.1815C75.9089 72.0267 75.1894 72.0883 74.4249 72.3666C73.6657 72.6429 73.0699 73.0688 72.6375 73.6443C72.205 74.2198 71.9521 74.892 71.8785 75.6608C71.8102 76.4276 71.9341 77.2453 72.2502 78.1137L72.253 78.1215C72.5729 79.0003 73.0045 79.7089 73.5479 80.2473C74.0946 80.7785 74.7183 81.1168 75.419 81.2623C76.1249 81.4058 76.8783 81.3318 77.6791 81.0403ZM86.3295 77.7947C86.4647 77.7455 86.5945 77.6894 86.7188 77.6265C86.8431 77.5636 86.9665 77.4981 87.0889 77.4299L86.6687 76.2755C86.5477 76.3313 86.444 76.3779 86.3574 76.4153C86.2761 76.4508 86.1757 76.4903 86.0561 76.5338C85.6193 76.6928 85.2685 76.6998 85.0037 76.5547C84.737 76.4044 84.5137 76.0823 84.3339 75.5883L82.6021 70.8302L84.4429 70.1602L84.0341 69.0369L82.1933 69.707L81.4012 67.5307L79.9971 68.0417L80.7892 70.218L79.4632 70.7006L79.872 71.8238L81.1981 71.3412L83.0548 76.4425C83.3463 77.2433 83.7478 77.7479 84.2594 77.9563C84.7762 78.1627 85.4663 78.1089 86.3295 77.7947ZM93.6935 75.0437L95.0508 74.5497L90.7752 62.8026L89.418 63.2966L93.6935 75.0437ZM100.526 72.7248C100.937 72.5753 101.283 72.3872 101.566 72.1607C101.854 71.9322 102.077 71.6714 102.235 71.3783C102.392 71.0799 102.484 70.7579 102.511 70.4123L102.636 70.3668L103.093 71.6227L104.45 71.1287L101.39 62.7201L100.032 63.2141L101.844 68.1906C101.978 68.5598 102.05 68.9106 102.059 69.243C102.071 69.5682 102.019 69.8699 101.902 70.1479C101.784 70.4208 101.601 70.6638 101.355 70.8771C101.114 71.0885 100.809 71.2614 100.44 71.3958C99.7688 71.64 99.218 71.6314 98.7872 71.3701C98.3616 71.1068 98.0116 70.5982 97.7372 69.8442L95.8748 64.7273L94.5176 65.2213L96.4992 70.6658C96.7396 71.3262 97.0515 71.8516 97.4351 72.242C97.8219 72.6254 98.2756 72.8607 98.7962 72.948C99.3149 73.0301 99.8914 72.9557 100.526 72.7248ZM106.985 70.206L108.342 69.712L106.531 64.7355C106.351 64.2415 106.285 63.7855 106.333 63.3675C106.387 62.9477 106.542 62.5819 106.8 62.2703C107.057 61.9586 107.41 61.7214 107.857 61.5587C108.528 61.3145 109.089 61.3193 109.541 61.5731C109.995 61.8197 110.361 62.3227 110.637 63.0819L112.5 68.1988L113.857 67.7048L111.875 62.2603C111.512 61.2619 110.978 60.5876 110.273 60.2375C109.572 59.8802 108.748 59.8739 107.802 60.2183C107.183 60.4436 106.719 60.7538 106.409 61.1492C106.098 61.5393 105.917 61.9968 105.867 62.5216L105.742 62.567L105.282 61.3034L103.925 61.7974L106.985 70.206ZM119.808 65.7067C120.484 65.4607 121.02 65.1388 121.417 64.741C121.814 64.3433 122.088 63.8964 122.237 63.4004C122.384 62.8992 122.423 62.3756 122.354 61.8296L122.339 61.7381L121 62.2342L121.001 62.2867C121.015 62.8115 120.888 63.2614 120.618 63.6364C120.348 64.0114 119.93 64.302 119.363 64.5083C118.864 64.69 118.382 64.718 117.918 64.5924C117.454 64.4668 117.035 64.2043 116.66 63.8049C116.283 63.4003 115.977 62.8756 115.743 62.2308L115.737 62.2152C115.506 61.5808 115.405 60.9962 115.434 60.4615C115.467 59.9196 115.621 59.4541 115.898 59.0649C116.174 58.6757 116.565 58.3894 117.069 58.2058C117.672 57.9862 118.211 57.9548 118.687 58.1117C119.162 58.2685 119.527 58.536 119.782 58.9141L119.799 58.9347L121.148 58.4436L121.123 58.3996C120.859 57.9307 120.505 57.5499 120.063 57.2574C119.619 56.9597 119.106 56.7811 118.525 56.7217C117.944 56.6623 117.313 56.7566 116.632 57.0045C115.847 57.2903 115.231 57.7177 114.784 58.2866C114.335 58.8503 114.07 59.5123 113.987 60.2725C113.91 61.0309 114.03 61.8469 114.348 62.7205L114.354 62.7361C114.678 63.6253 115.117 64.3398 115.673 64.8796C116.229 65.4194 116.861 65.7636 117.568 65.9123C118.276 66.061 119.023 65.9925 119.808 65.7067ZM125.331 63.5286L126.688 63.0346L124.877 58.0581C124.697 57.5641 124.631 57.1081 124.679 56.6901C124.733 56.2703 124.888 55.9045 125.146 55.5929C125.403 55.2812 125.756 55.044 126.203 54.8813C126.874 54.6371 127.435 54.6419 127.887 54.8957C128.341 55.1423 128.707 55.6453 128.983 56.4045L130.846 61.5214L132.203 61.0274L130.221 55.5829C129.979 54.9173 129.659 54.3947 129.262 54.0151C128.865 53.6356 128.404 53.4057 127.88 53.3255C127.355 53.2401 126.777 53.3119 126.148 53.5409C125.529 53.7661 125.065 54.0764 124.755 54.4718C124.444 54.8619 124.263 55.3194 124.213 55.8442L124.088 55.8896L122.413 51.2875L121.056 51.7815L125.331 63.5286ZM135.796 59.808C136.077 59.7058 136.28 59.5199 136.406 59.2504C136.53 58.9756 136.541 58.7005 136.441 58.4249C136.339 58.1441 136.153 57.9408 135.883 57.8151C135.614 57.6894 135.339 57.6777 135.058 57.7799C134.782 57.8802 134.579 58.0661 134.448 58.3375C134.323 58.607 134.311 58.8822 134.413 59.163C134.513 59.4386 134.699 59.6419 134.971 59.7727C135.245 59.8965 135.521 59.9083 135.796 59.808ZM144.067 56.7092L145.471 56.1982L143.606 51.0735L149.784 48.825L151.649 53.9497L153.053 53.4387L148.956 42.183L147.552 42.694L149.324 47.5613L143.146 49.8099L141.374 44.9425L139.97 45.4536L144.067 56.7092ZM159.261 51.3469C160.062 51.0554 160.688 50.6304 161.138 50.0719C161.587 49.5082 161.849 48.8446 161.924 48.081C162.005 47.3155 161.882 46.4856 161.557 45.5912L161.551 45.5756C161.223 44.6759 160.783 43.9589 160.229 43.4243C159.68 42.8878 159.054 42.5504 158.35 42.4121C157.646 42.2738 156.894 42.3504 156.093 42.6419C155.297 42.9314 154.672 43.3564 154.216 43.9168C153.766 44.4753 153.5 45.1373 153.419 45.9028C153.344 46.6663 153.47 47.4979 153.798 48.3976L153.803 48.4132C154.129 49.3076 154.566 50.023 155.114 50.5595C155.668 51.094 156.298 51.4331 157.004 51.5766C157.713 51.713 158.466 51.6364 159.261 51.3469ZM158.824 50.1456C158.294 50.3387 157.798 50.3776 157.338 50.2624C156.878 50.1472 156.464 49.8915 156.096 49.4954C155.734 49.0974 155.432 48.5682 155.192 47.9078L155.186 47.8922C154.944 47.2266 154.834 46.6248 154.856 46.0867C154.883 45.5468 155.037 45.0874 155.317 44.7087C155.595 44.3247 156 44.0361 156.53 43.8431C157.06 43.65 157.556 43.6111 158.016 43.7263C158.474 43.8364 158.884 44.0904 159.247 44.4884C159.615 44.8844 159.92 45.4153 160.162 46.0809L160.168 46.0965C160.409 46.7569 160.515 47.3571 160.488 47.897C160.466 48.4351 160.316 48.8961 160.037 49.2801C159.759 49.6641 159.354 49.9526 158.824 50.1456ZM166.5 48.5442L167.858 48.0502L167.362 40.8635L167.487 40.818L171.734 46.6392L173.099 46.1423L172.395 36.8764L171.045 37.3675L171.839 44.6931L171.714 44.7386L167.387 38.699L166.1 39.1675L166.667 46.5754L166.542 46.6208L162.442 40.499L161.084 40.993L166.5 48.5442ZM184.105 42.3045C184.484 42.1664 184.814 41.9876 185.093 41.7681C185.371 41.5434 185.596 41.2817 185.77 40.9828C185.949 40.6821 186.073 40.3513 186.142 39.9906L186.267 39.9452L186.719 41.1854L188.076 40.6914L185.981 34.9349C185.769 34.3524 185.462 33.8987 185.061 33.5735C184.663 33.2412 184.185 33.0504 183.625 33.0009C183.07 32.9495 182.45 33.0488 181.763 33.2986C181.165 33.5163 180.666 33.8039 180.266 34.1614C179.865 34.5138 179.576 34.9103 179.401 35.351C179.229 35.7846 179.187 36.2356 179.275 36.7041L179.284 36.7538L180.641 36.2598L180.641 36.2335C180.631 35.8662 180.755 35.5354 181.013 35.2413C181.269 34.9419 181.649 34.7005 182.154 34.5169C182.783 34.2878 183.304 34.2544 183.716 34.4164C184.132 34.5714 184.434 34.9088 184.623 35.4289L185.577 38.0497C185.723 38.4501 185.75 38.8468 185.657 39.2397C185.57 39.6307 185.381 39.9851 185.09 40.3029C184.797 40.6155 184.42 40.8561 183.957 41.0245C183.468 41.2024 183.02 41.233 182.612 41.1164C182.203 40.9945 181.921 40.7204 181.765 40.294L181.76 40.2784C181.608 39.8624 181.636 39.487 181.844 39.1522C182.058 38.8155 182.477 38.5125 183.104 38.2433L185.961 36.9915L185.566 35.9073L182.545 37.2187C181.908 37.4917 181.398 37.8129 181.014 38.1823C180.631 38.5516 180.384 38.9592 180.276 39.4051C180.165 39.8458 180.201 40.3157 180.383 40.8149L180.388 40.8305C180.574 41.3401 180.857 41.7377 181.237 42.0231C181.623 42.3067 182.064 42.4732 182.559 42.5227C183.059 42.5703 183.574 42.4976 184.105 42.3045ZM194.791 38.4151C195.503 38.1558 196.057 37.7511 196.452 37.2012C196.851 36.6493 197.079 35.9954 197.133 35.2394C197.186 34.4782 197.053 33.6607 196.735 32.7871L196.73 32.7715C196.41 31.8927 195.986 31.1813 195.458 30.6372C194.93 30.0932 194.336 29.7383 193.675 29.5726C193.019 29.4049 192.335 29.4508 191.623 29.7101C191.238 29.8501 190.897 30.045 190.599 30.2947C190.304 30.5374 190.064 30.8161 189.879 31.1311C189.698 31.4441 189.585 31.7798 189.538 32.1382L189.414 32.1836L187.716 27.5191L186.359 28.0131L190.634 39.7602L191.991 39.2662L191.503 37.9246L191.628 37.8791C191.913 38.1287 192.226 38.318 192.568 38.4469C192.907 38.5707 193.265 38.6318 193.642 38.6303C194.018 38.6288 194.401 38.557 194.791 38.4151ZM194.042 37.3274C193.532 37.5129 193.046 37.5454 192.584 37.425C192.123 37.3046 191.708 37.0463 191.34 36.6502C190.97 36.2489 190.668 35.7259 190.433 35.0811L190.427 35.0655C190.191 34.4154 190.086 33.8205 190.113 33.2805C190.14 32.7406 190.292 32.276 190.569 31.8869C190.845 31.4977 191.238 31.2103 191.748 31.0248C192.263 30.8375 192.748 30.8049 193.205 30.9273C193.66 31.0444 194.069 31.3019 194.432 31.6999C194.8 32.096 195.103 32.6216 195.341 33.2769L195.347 33.2925C195.584 33.9425 195.689 34.5401 195.664 35.0852C195.642 35.6232 195.495 36.0859 195.224 36.4732C194.951 36.8553 194.557 37.14 194.042 37.3274ZM203.878 35.1076C204.679 34.8161 205.305 34.3911 205.755 33.8326C206.204 33.2689 206.466 32.6053 206.541 31.8417C206.622 31.0763 206.499 30.2463 206.174 29.3519L206.168 29.3363C205.841 28.4367 205.4 27.7196 204.846 27.185C204.298 26.6486 203.671 26.3112 202.967 26.1729C202.263 26.0345 201.511 26.1111 200.71 26.4026C199.914 26.6922 199.289 27.1172 198.833 27.6775C198.383 28.236 198.117 28.898 198.037 29.6635C197.961 30.4271 198.087 31.2587 198.415 32.1583L198.42 32.1739C198.746 33.0683 199.183 33.7837 199.731 34.3202C200.285 34.8548 200.915 35.1938 201.621 35.3373C202.33 35.4737 203.083 35.3972 203.878 35.1076ZM203.441 33.9064C202.911 34.0994 202.415 34.1383 201.955 34.0231C201.495 33.9079 201.081 33.6522 200.713 33.2561C200.351 32.8582 200.049 32.329 199.809 31.6685L199.803 31.6529C199.561 30.9873 199.451 30.3855 199.473 29.8475C199.5 29.3075 199.654 28.8482 199.934 28.4694C200.212 28.0854 200.617 27.7969 201.147 27.6038C201.678 27.4108 202.173 27.3718 202.633 27.4871C203.091 27.5971 203.501 27.8511 203.864 28.2491C204.232 28.6452 204.537 29.176 204.78 29.8416L204.785 29.8572C205.026 30.5176 205.132 31.1178 205.105 31.6578C205.083 32.1958 204.933 32.6568 204.654 33.0408C204.376 33.4248 203.971 33.7133 203.441 33.9064ZM212.677 31.9052C213.088 31.7556 213.434 31.5676 213.717 31.341C214.005 31.1126 214.228 30.8518 214.386 30.5586C214.543 30.2602 214.635 29.9382 214.662 29.5926L214.787 29.5472L215.244 30.803L216.601 30.309L213.541 21.9004L212.183 22.3944L213.995 27.371C214.129 27.7402 214.201 28.091 214.21 28.4233C214.222 28.7486 214.17 29.0503 214.053 29.3283C213.935 29.6011 213.752 29.8442 213.506 30.0575C213.265 30.2689 212.96 30.4418 212.591 30.5762C211.92 30.8203 211.369 30.8117 210.938 30.5504C210.513 30.2872 210.163 29.7786 209.888 29.0246L208.026 23.9076L206.669 24.4016L208.65 29.8462C208.891 30.5066 209.203 31.032 209.586 31.4224C209.973 31.8057 210.427 32.041 210.947 32.1284C211.466 32.2105 212.042 32.1361 212.677 31.9052ZM222.146 28.3614C222.281 28.3122 222.411 28.2561 222.536 28.1932C222.66 28.1303 222.783 28.0648 222.906 27.9967L222.486 26.8422C222.365 26.8981 222.261 26.9447 222.174 26.982C222.093 27.0175 221.992 27.057 221.873 27.1006C221.436 27.2595 221.085 27.2665 220.82 27.1214C220.554 26.9712 220.33 26.649 220.151 26.155L218.419 21.3969L220.26 20.7269L219.851 19.6037L218.01 20.2737L217.218 18.0974L215.814 18.6085L216.606 20.7847L215.28 21.2673L215.689 22.3906L217.015 21.9079L218.872 27.0093C219.163 27.8101 219.565 28.3147 220.076 28.523C220.593 28.7295 221.283 28.6756 222.146 28.3614ZM31.7888 124.167L33.146 123.673L31.6413 119.539L31.7661 119.494C32.0319 119.738 32.3346 119.923 32.6741 120.047C33.0188 120.168 33.3828 120.23 33.7663 120.232C34.153 120.227 34.5388 120.154 34.9236 120.014C35.636 119.755 36.1895 119.35 36.5841 118.8C36.9839 118.248 37.2112 117.594 37.2658 116.838C37.3204 116.082 37.1878 115.265 36.8679 114.386L36.8622 114.37C36.5443 113.497 36.1214 112.788 35.5936 112.244C35.0658 111.7 34.4714 111.345 33.8104 111.179C33.1527 111.006 32.4676 111.05 31.7552 111.309C31.3652 111.451 31.0256 111.642 30.7363 111.883C30.447 112.124 30.2131 112.403 30.0344 112.721C29.8539 113.035 29.7346 113.378 29.6766 113.753L29.5518 113.798L29.0635 112.457L27.7063 112.951L31.7888 124.167ZM34.1744 118.926C33.6647 119.112 33.179 119.144 32.717 119.024C32.2551 118.903 31.8401 118.645 31.4722 118.249C31.1023 117.848 30.8001 117.325 30.5654 116.68L30.5597 116.664C30.3231 116.014 30.2184 115.419 30.2457 114.879C30.273 114.34 30.4248 113.875 30.7013 113.486C30.9778 113.097 31.3708 112.809 31.8804 112.624C32.3952 112.436 32.881 112.404 33.3378 112.526C33.7926 112.643 34.2014 112.901 34.5642 113.299C34.9321 113.695 35.2353 114.221 35.4738 114.876L35.4795 114.891C35.7161 115.541 35.8217 116.139 35.7963 116.684C35.7742 117.222 35.6276 117.685 35.3563 118.072C35.0832 118.454 34.6892 118.739 34.1744 118.926ZM40.5482 117.799L41.9054 117.305L38.8449 108.896L37.4877 109.39L40.5482 117.799ZM37.5836 107.518C37.8436 107.423 38.0315 107.252 38.1472 107.004C38.2611 106.75 38.2717 106.496 38.1789 106.241C38.0843 105.981 37.9128 105.793 37.6646 105.678C37.4163 105.562 37.1622 105.551 36.9022 105.646C36.6474 105.739 36.4595 105.91 36.3386 106.16C36.2228 106.409 36.2122 106.663 36.3069 106.923C36.3996 107.178 36.5711 107.365 36.8212 107.486C37.0747 107.6 37.3288 107.611 37.5836 107.518ZM44.2689 116.445L50.743 114.088L50.3342 112.965L45.4825 114.731L45.437 114.606L48.0254 106.694L47.6591 105.688L41.2162 108.033L41.625 109.157L46.4689 107.393L46.5143 107.518L43.9111 115.462L44.2689 116.445ZM52.8803 113.31L59.3544 110.954L58.9456 109.831L54.0939 111.597L54.0484 111.472L56.6368 103.56L56.2705 102.554L49.8276 104.899L50.2364 106.022L55.0803 104.259L55.1257 104.384L52.5225 112.328L52.8803 113.31ZM64.0495 109.413C64.4291 109.275 64.7585 109.096 65.0379 108.877C65.3154 108.652 65.541 108.39 65.7149 108.091C65.894 107.791 66.018 107.46 66.087 107.099L66.2118 107.054L66.6632 108.294L68.0204 107.8L65.9252 102.043C65.7132 101.461 65.4067 101.007 65.0057 100.682C64.608 100.35 64.1292 100.159 63.5694 100.109C63.0148 100.058 62.3943 100.157 61.7079 100.407C61.1099 100.625 60.611 100.912 60.2111 101.27C59.8093 101.622 59.5208 102.019 59.3455 102.459C59.1736 102.893 59.1316 103.344 59.2197 103.813L59.2289 103.862L60.5862 103.368L60.5854 103.342C60.5754 102.975 60.6994 102.644 60.9575 102.35C61.2136 102.05 61.5939 101.809 62.0983 101.625C62.7275 101.396 63.2483 101.363 63.6606 101.525C64.0763 101.68 64.3787 102.017 64.568 102.537L65.5219 105.158C65.6676 105.559 65.6942 105.955 65.6017 106.348C65.5143 106.739 65.3253 107.094 65.0346 107.411C64.7421 107.724 64.3644 107.965 63.9016 108.133C63.4128 108.311 62.9646 108.342 62.557 108.225C62.1475 108.103 61.8652 107.829 61.71 107.402L61.7043 107.387C61.5529 106.971 61.5811 106.595 61.7891 106.261C62.0022 105.924 62.4219 105.621 63.0483 105.352L65.9052 104.1L65.5106 103.016L62.4899 104.327C61.8531 104.6 61.3428 104.921 60.959 105.291C60.5752 105.66 60.329 106.068 60.2204 106.514C60.1099 106.954 60.1455 107.424 60.3272 107.923L60.3329 107.939C60.5184 108.449 60.8015 108.846 61.1821 109.132C61.568 109.415 62.0085 109.582 62.5035 109.631C63.0037 109.679 63.519 109.606 64.0495 109.413ZM71.0365 102.762L72.4015 102.266L72.217 101.759C72.1167 101.483 72.066 101.23 72.065 101.001C72.0692 100.77 72.1301 100.533 72.2478 100.29C72.3706 100.045 72.5608 99.7666 72.8184 99.4549C73.0774 99.131 73.2818 98.7945 73.4316 98.4456C73.5813 98.0966 73.6616 97.7347 73.6724 97.3597C73.6864 96.9777 73.6197 96.5839 73.472 96.1783L73.4663 96.1627C73.2714 95.6271 72.9569 95.1998 72.5228 94.8808C72.0919 94.5547 71.5825 94.3603 70.9943 94.2976C70.4094 94.2278 69.7894 94.3121 69.1342 94.5506C68.4062 94.8156 67.8444 95.1732 67.4488 95.6234C67.0532 96.0736 66.8087 96.5748 66.7152 97.1271C66.6218 97.6793 66.6607 98.2393 66.832 98.8071L66.8377 98.8227L68.1609 98.3322L68.1736 98.3188C68.0653 97.9401 68.0451 97.5853 68.113 97.2543C68.1862 96.9214 68.3419 96.6292 68.5801 96.3776C68.8183 96.126 69.1325 95.9292 69.5225 95.7873C69.9125 95.6453 70.277 95.5951 70.616 95.6366C70.955 95.6781 71.2479 95.7953 71.4948 95.9881C71.7416 96.1809 71.9237 96.4386 72.0411 96.761L72.0467 96.7766C72.1471 97.0522 72.1944 97.3117 72.1888 97.5552C72.1832 97.7987 72.1199 98.0455 71.999 98.2956C71.8813 98.5387 71.7058 98.8087 71.4723 99.1057C71.1963 99.4476 70.9839 99.7781 70.835 100.097C70.6862 100.416 70.6083 100.736 70.6013 101.057C70.5924 101.372 70.6504 101.702 70.7753 102.045L71.0365 102.762ZM73.1416 106.095C73.4588 105.979 73.6793 105.784 73.8031 105.51C73.9321 105.233 73.9389 104.936 73.8234 104.619C73.7061 104.296 73.5091 104.071 73.2325 103.942C72.9611 103.811 72.6667 103.803 72.3495 103.919C72.0323 104.034 71.8092 104.23 71.6802 104.507C71.5513 104.783 71.5454 105.083 71.6628 105.405C71.7782 105.723 71.9743 105.946 72.2509 106.075C72.5275 106.204 72.8244 106.21 73.1416 106.095Z" fill="white"/>
</svg>
