<svg width="302" height="177" viewBox="0 0 302 177" fill="none" xmlns="http://www.w3.org/2000/svg">
<path fill-rule="evenodd" clip-rule="evenodd" d="M282.68 23.1387C279.806 15.2445 278.37 11.2974 275.736 8.84145C273.419 6.68109 270.478 5.3096 267.334 4.92356C263.76 4.48469 259.813 5.9213 251.919 8.79454L22.6335 92.2475C14.7394 95.1207 10.7923 96.5573 8.33631 99.1911C6.17595 101.508 4.80447 104.449 4.41842 107.593C3.97955 111.167 5.41617 115.114 8.28941 123.009L18.892 152.139C21.7653 160.033 23.2019 163.98 25.8356 166.436C28.1523 168.597 31.0935 169.968 34.2376 170.354C37.8119 170.793 41.759 169.356 49.6531 166.483L278.938 83.0303C286.832 80.157 290.779 78.7204 293.235 76.0867C295.396 73.77 296.767 70.8288 297.153 67.6847C297.592 64.1104 296.156 60.1633 293.282 52.2692L282.68 23.1387Z" fill="#E6E5EB"/>
<path fill-rule="evenodd" clip-rule="evenodd" d="M22.2898 176.093L22.4021 176.402L28.0402 174.35C35.3059 171.705 39.0521 163.671 36.4076 156.406L22.3126 161.536C23.2491 164.109 23.7174 165.396 23.9293 166.536C24.5535 169.895 23.9192 173.269 22.2898 176.093Z" fill="#E6E5EB"/>
<path d="M22.8803 117.698L24.2844 117.187L20.1877 105.931L18.7836 106.442L22.8803 117.698ZM34.6346 113.588C35.0246 113.446 35.3642 113.254 35.6535 113.013C35.9428 112.773 36.1777 112.496 36.3582 112.183C36.5368 111.865 36.6551 111.518 36.7132 111.144L36.838 111.098L37.3263 112.44L38.6835 111.946L34.4079 100.199L33.0507 100.693L34.7484 105.357L34.6236 105.403C34.3631 105.156 34.0604 104.972 33.7157 104.85C33.371 104.728 33.0053 104.67 32.6186 104.675C32.2351 104.673 31.851 104.742 31.4662 104.883C30.7538 105.142 30.1977 105.547 29.7978 106.099C29.4032 106.649 29.1786 107.302 29.124 108.058C29.0694 108.814 29.202 109.632 29.5219 110.51L29.5275 110.526C29.8455 111.4 30.2693 112.111 30.799 112.66C31.3268 113.204 31.9212 113.559 32.5822 113.725C33.2432 113.891 33.9273 113.845 34.6346 113.588ZM34.5094 112.273C33.9997 112.458 33.5149 112.493 33.0549 112.378C32.5981 112.256 32.1858 111.997 31.8178 111.601C31.4532 111.197 31.1526 110.671 30.916 110.021L30.9103 110.005C30.6718 109.35 30.5636 108.753 30.5857 108.215C30.6129 107.675 30.7631 107.214 31.0363 106.832C31.3128 106.443 31.7058 106.156 32.2154 105.97C32.725 105.785 33.2108 105.752 33.6728 105.873C34.1347 105.993 34.5497 106.251 34.9176 106.647C35.2856 107.043 35.5878 107.567 35.8244 108.217L35.8301 108.232C36.0648 108.877 36.1694 109.472 36.1441 110.017C36.1168 110.557 35.9649 111.022 35.6885 111.411C35.412 111.8 35.019 112.087 34.5094 112.273ZM44.7982 109.888C45.599 109.597 46.2246 109.172 46.675 108.613C47.1235 108.05 47.3855 107.386 47.4609 106.622C47.5416 105.857 47.4191 105.027 47.0935 104.133L47.0879 104.117C46.7604 103.217 46.3198 102.5 45.766 101.966C45.2174 101.429 44.5911 101.092 43.8871 100.954C43.1831 100.815 42.4307 100.892 41.6298 101.183C40.8342 101.473 40.2086 101.898 39.753 102.458C39.3026 103.017 39.0371 103.679 38.9565 104.444C38.881 105.208 39.0071 106.039 39.3345 106.939L39.3402 106.955C39.6657 107.849 40.1028 108.564 40.6514 109.101C41.2052 109.635 41.835 109.974 42.5409 110.118C43.2502 110.254 44.0026 110.178 44.7982 109.888ZM44.361 108.687C43.8306 108.88 43.3353 108.919 42.8753 108.804C42.4152 108.689 42.0012 108.433 41.6333 108.037C41.2705 107.639 40.969 107.11 40.7286 106.449L40.7229 106.434C40.4807 105.768 40.3706 105.166 40.3926 104.628C40.4199 104.088 40.5736 103.629 40.8539 103.25C41.1322 102.866 41.5366 102.578 42.067 102.384C42.5975 102.191 43.0927 102.153 43.5528 102.268C44.0109 102.378 44.4214 102.632 44.7841 103.03C45.1521 103.426 45.4572 103.957 45.6994 104.622L45.7051 104.638C45.9455 105.298 46.052 105.899 46.0248 106.438C46.0027 106.976 45.8525 107.437 45.5741 107.821C45.2958 108.205 44.8914 108.494 44.361 108.687ZM50.727 107.563L52.0842 107.069L50.2729 102.092C50.0931 101.598 50.0273 101.142 50.0754 100.724C50.1287 100.304 50.2841 99.9385 50.5417 99.6268C50.7993 99.3152 51.1517 99.078 51.5989 98.9152C52.2697 98.671 52.8309 98.6758 53.2825 98.9296C53.7374 99.1762 54.103 99.6792 54.3793 100.438L56.2417 105.555L57.599 105.061L55.6173 99.6168C55.2539 98.6184 54.7199 97.9441 54.0154 97.594C53.3141 97.2368 52.4903 97.2304 51.5439 97.5748C50.9251 97.8001 50.4609 98.1104 50.1513 98.5057C49.8399 98.8959 49.6589 99.3533 49.6085 99.8781L49.4837 99.9236L49.0237 98.6599L47.6665 99.1539L50.727 107.563ZM58.1207 97.1509L59.2439 96.7421L57.7923 92.2442L56.3415 92.7723L58.1207 97.1509ZM67.8087 101.416C67.9439 101.367 68.0737 101.311 68.198 101.248C68.3223 101.185 68.4457 101.119 68.5681 101.051L68.148 99.8968C68.0269 99.9526 67.9232 99.9992 67.8367 100.037C67.7554 100.072 67.6549 100.112 67.5353 100.155C67.0985 100.314 66.7477 100.321 66.4829 100.176C66.2162 100.026 65.9929 99.7036 65.8131 99.2096L64.0813 94.4515L65.9222 93.7814L65.5133 92.6582L63.6725 93.3282L62.8804 91.152L61.4764 91.663L62.2685 93.8393L60.9424 94.3219L61.3512 95.4451L62.6773 94.9625L64.534 100.064C64.8255 100.865 65.227 101.369 65.7386 101.578C66.2555 101.784 66.9455 101.73 67.8087 101.416ZM75.1728 98.665L76.53 98.171L72.2544 86.4239L70.8972 86.9179L75.1728 98.665ZM80.4691 96.7373L82.1773 96.1155L76.3695 92.5848L75.6862 93.814L80.4691 96.7373ZM75.2569 95.207L76.0726 93.5409L76.2838 93.1018L78.875 87.7949L77.2292 88.394L74.9315 93.3909L74.5727 93.5215L75.2569 95.207ZM83.7686 95.5364L85.1258 95.0424L83.3145 90.0659C83.1347 89.5719 83.0688 89.1159 83.1169 88.6979C83.1702 88.2781 83.3257 87.9123 83.5833 87.6007C83.8408 87.289 84.1932 87.0518 84.6404 86.889C85.3113 86.6449 85.8725 86.6497 86.3241 86.9034C86.7789 87.1501 87.1446 87.653 87.4209 88.4123L89.2833 93.5292L90.6405 93.0352L88.6589 87.5907C88.2955 86.5922 87.7615 85.918 87.057 85.5678C86.3557 85.2106 85.5319 85.2042 84.5854 85.5487C83.9666 85.7739 83.5024 86.0842 83.1929 86.4796C82.8814 86.8697 82.7005 87.3272 82.6501 87.852L82.5252 87.8974L82.0653 86.6338L80.7081 87.1278L83.7686 95.5364ZM96.607 91.0314C97.4078 90.7399 98.0334 90.3149 98.4838 89.7564C98.9324 89.1927 99.1943 88.5291 99.2697 87.7655C99.3504 87.0001 99.2279 86.1701 98.9024 85.2757L98.8967 85.2601C98.5692 84.3605 98.1286 83.6434 97.5748 83.1088C97.0262 82.5724 96.3999 82.235 95.6959 82.0967C94.9919 81.9583 94.2395 82.0349 93.4387 82.3264C92.643 82.616 92.0174 83.041 91.5618 83.6014C91.1114 84.1598 90.8459 84.8218 90.7653 85.5873C90.6899 86.3509 90.8159 87.1825 91.1433 88.0821L91.149 88.0977C91.4745 88.9921 91.9116 89.7076 92.4602 90.244C93.014 90.7786 93.6438 91.1176 94.3497 91.2611C95.059 91.3976 95.8114 91.321 96.607 91.0314ZM96.1698 89.8302C95.6394 90.0232 95.1442 90.0621 94.6841 89.9469C94.224 89.8317 93.81 89.576 93.4421 89.1799C93.0793 88.782 92.7778 88.2528 92.5374 87.5923L92.5317 87.5767C92.2895 86.9111 92.1794 86.3093 92.2014 85.7713C92.2287 85.2313 92.3825 84.772 92.6627 84.3932C92.9411 84.0092 93.3454 83.7207 93.8759 83.5276C94.4063 83.3346 94.9015 83.2957 95.3616 83.4109C95.8197 83.5209 96.2302 83.7749 96.5929 84.1729C96.9609 84.569 97.266 85.0998 97.5083 85.7654L97.5139 85.781C97.7543 86.4415 97.8609 87.0416 97.8336 87.5816C97.8115 88.1196 97.6613 88.5806 97.383 88.9646C97.1046 89.3486 96.7002 89.6371 96.1698 89.8302ZM103.846 88.2287L105.203 87.7347L104.708 80.548L104.833 80.5026L109.08 86.3237L110.445 85.8269L109.74 76.5609L108.391 77.052L109.185 84.3777L109.06 84.4231L104.733 78.3835L103.446 78.852L104.013 86.26L103.888 86.3054L99.7873 80.1835L98.4301 80.6775L103.846 88.2287ZM120.71 82.0907L122.067 81.5967L121.572 74.41L121.697 74.3646L125.944 80.1857L127.309 79.6889L126.604 70.4229L125.255 70.914L126.049 78.2397L125.924 78.2851L121.597 72.2456L120.31 72.714L120.877 80.122L120.752 80.1674L116.651 74.0455L115.294 74.5395L120.71 82.0907ZM131.537 78.1501L132.894 77.6561L131.083 72.6796C130.903 72.1856 130.837 71.7296 130.885 71.3117C130.939 70.8918 131.094 70.5261 131.352 70.2144C131.609 69.9028 131.962 69.6656 132.409 69.5028C133.08 69.2586 133.641 69.2634 134.092 69.5172C134.547 69.7639 134.913 70.2668 135.189 71.026L137.052 76.1429L138.409 75.6489L136.427 70.2044C136.185 69.5388 135.865 69.0162 135.468 68.6367C135.071 68.2572 134.61 68.0273 134.086 67.9471C133.56 67.8616 132.983 67.9334 132.354 68.1625C131.735 68.3877 131.271 68.698 130.961 69.0933C130.65 69.4835 130.469 69.9409 130.418 70.4657L130.294 70.5112L128.619 65.9091L127.261 66.403L131.537 78.1501ZM142.345 77.5555C142.844 77.3738 143.236 77.1486 143.521 76.88C143.813 76.6147 144.02 76.2598 144.141 75.8153C144.267 75.369 144.332 74.7886 144.337 74.0742L144.373 63.9556L142.946 64.4751L143.192 73.1838L143.42 72.1377L142.781 72.3705L143.628 73.0248L138.211 66.1984L136.76 66.7265L142.936 74.0101L142.961 74.5661C142.987 75.1046 142.91 75.5181 142.733 75.8065C142.56 76.0931 142.282 76.3064 141.897 76.4464C141.803 76.4805 141.706 76.5129 141.605 76.5437C141.505 76.5745 141.41 76.5972 141.321 76.6119L141.727 77.7273C141.826 77.7088 141.931 77.6823 142.043 77.6478C142.156 77.6184 142.256 77.5877 142.345 77.5555ZM154.743 72.884L156.1 72.39L154.595 68.2559L154.72 68.2105C154.986 68.4553 155.288 68.6396 155.628 68.7634C155.973 68.8852 156.337 68.9471 156.72 68.9488C157.107 68.9435 157.493 68.8708 157.877 68.7308C158.59 68.4715 159.143 68.0668 159.538 67.5169C159.938 66.965 160.165 66.3111 160.22 65.5551C160.274 64.7991 160.142 63.9817 159.822 63.1028L159.816 63.0872C159.498 62.2136 159.075 61.5048 158.547 60.9608C158.02 60.4167 157.425 60.0619 156.764 59.8961C156.107 59.7233 155.422 59.7665 154.709 60.0258C154.319 60.1677 153.979 60.3591 153.69 60.5998C153.401 60.8405 153.167 61.12 152.988 61.4383C152.808 61.7513 152.689 62.0951 152.63 62.4695L152.506 62.515L152.017 61.1733L150.66 61.6673L154.743 72.884ZM157.128 67.6431C156.619 67.8286 156.133 67.8611 155.671 67.7407C155.209 67.6203 154.794 67.362 154.426 66.9659C154.056 66.5646 153.754 66.0416 153.519 65.3968L153.514 65.3812C153.277 64.7312 153.172 64.1362 153.2 63.5963C153.227 63.0563 153.379 62.5918 153.655 62.2026C153.932 61.8134 154.325 61.5261 154.834 61.3406C155.349 61.1532 155.835 61.1207 156.292 61.243C156.746 61.3601 157.155 61.6176 157.518 62.0156C157.886 62.4117 158.189 62.9374 158.428 63.5926L158.433 63.6082C158.67 64.2582 158.776 64.8558 158.75 65.4009C158.728 65.9389 158.581 66.4016 158.31 66.7889C158.037 67.171 157.643 67.4557 157.128 67.6431ZM166.957 65.4261C167.451 65.2463 167.873 65.0221 168.223 64.7535C168.576 64.4777 168.859 64.1803 169.073 63.8611C169.284 63.5367 169.433 63.2087 169.518 62.8773C169.607 62.5388 169.636 62.2132 169.605 61.9007L169.598 61.8326L168.24 62.3266L168.235 62.4082C168.222 62.6011 168.155 62.8113 168.031 63.0387C167.908 63.2662 167.725 63.483 167.482 63.6892C167.239 63.8954 166.928 64.0676 166.548 64.2058C166.038 64.3912 165.556 64.4403 165.1 64.353C164.642 64.2605 164.235 64.0405 163.879 63.6931C163.521 63.3405 163.233 62.8652 163.016 62.2672L162.82 61.729C162.591 61.0998 162.502 60.5315 162.553 60.0242C162.604 59.5169 162.766 59.0896 163.04 58.7425C163.318 58.3883 163.683 58.1289 164.135 57.9642C164.587 57.7996 165.027 57.7604 165.453 57.8468C165.877 57.928 166.265 58.1459 166.618 58.5004C166.971 58.8548 167.267 59.3623 167.508 60.0227L167.704 60.5609L168.014 59.3261L161.969 61.5264L162.363 62.6106L169.103 60.1577L168.91 59.6273C168.605 58.7901 168.19 58.1108 167.664 57.5895C167.142 57.061 166.541 56.7203 165.861 56.5673C165.187 56.4125 164.467 56.4741 163.703 56.7524C162.943 57.0287 162.348 57.4546 161.915 58.0301C161.483 58.6057 161.23 59.2778 161.156 60.0466C161.088 60.8135 161.212 61.6311 161.528 62.4995L161.531 62.5073C161.851 63.3861 162.282 64.0947 162.826 64.6331C163.372 65.1643 163.996 65.5027 164.697 65.6481C165.403 65.7916 166.156 65.7176 166.957 65.4261ZM176.106 62.096C176.907 61.8045 177.533 61.3795 177.983 60.821C178.432 60.2573 178.694 59.5937 178.769 58.8301C178.85 58.0646 178.727 57.2347 178.402 56.3403L178.396 56.3247C178.069 55.425 177.628 54.7079 177.074 54.1734C176.526 53.6369 175.899 53.2995 175.195 53.1612C174.491 53.0229 173.739 53.0995 172.938 53.391C172.142 53.6805 171.517 54.1055 171.061 54.6659C170.611 55.2244 170.345 55.8864 170.265 56.6519C170.189 57.4154 170.315 58.247 170.643 59.1467L170.648 59.1623C170.974 60.0567 171.411 60.7721 171.96 61.3086C172.513 61.8431 173.143 62.1822 173.849 62.3257C174.558 62.4621 175.311 62.3855 176.106 62.096ZM175.669 60.8947C175.139 61.0878 174.644 61.1267 174.184 61.0115C173.724 60.8963 173.309 60.6406 172.942 60.2445C172.579 59.8465 172.277 59.3173 172.037 58.6569L172.031 58.6413C171.789 57.9757 171.679 57.3739 171.701 56.8358C171.728 56.2959 171.882 55.8365 172.162 55.4577C172.441 55.0738 172.845 54.7852 173.375 54.5922C173.906 54.3991 174.401 54.3602 174.861 54.4754C175.319 54.5855 175.73 54.8395 176.092 55.2374C176.46 55.6335 176.765 56.1644 177.008 56.83L177.013 56.8456C177.254 57.506 177.36 58.1062 177.333 58.6461C177.311 59.1842 177.161 59.6452 176.882 60.0292C176.604 60.4132 176.2 60.7017 175.669 60.8947ZM183.057 62.5783L184.415 62.0843L182.91 57.9502L183.035 57.9048C183.3 58.1496 183.603 58.3339 183.943 58.4577C184.287 58.5795 184.651 58.6414 185.035 58.6431C185.422 58.6378 185.807 58.5651 186.192 58.4251C186.905 58.1658 187.458 57.7612 187.853 57.2112C188.252 56.6593 188.48 56.0054 188.534 55.2494C188.589 54.4934 188.456 53.676 188.136 52.7971L188.131 52.7815C187.813 51.9079 187.39 51.1991 186.862 50.6551C186.334 50.111 185.74 49.7562 185.079 49.5904C184.421 49.4176 183.736 49.4608 183.024 49.7201C182.634 49.862 182.294 50.0534 182.005 50.2941C181.716 50.5348 181.482 50.8143 181.303 51.1326C181.122 51.4456 181.003 51.7894 180.945 52.1638L180.82 52.2093L180.332 50.8676L178.975 51.3616L183.057 62.5783ZM185.443 57.3374C184.933 57.5229 184.448 57.5554 183.986 57.435C183.524 57.3146 183.109 57.0563 182.741 56.6602C182.371 56.2589 182.069 55.7359 181.834 55.0911L181.828 55.0755C181.592 54.4255 181.487 53.8305 181.514 53.2906C181.542 52.7506 181.693 52.2861 181.97 51.8969C182.246 51.5077 182.639 51.2204 183.149 51.0349C183.664 50.8475 184.15 50.815 184.606 50.9373C185.061 51.0544 185.47 51.312 185.833 51.7099C186.201 52.106 186.504 52.6317 186.742 53.2869L186.748 53.3025C186.985 53.9525 187.09 54.5501 187.065 55.0952C187.043 55.6333 186.896 56.0959 186.625 56.4832C186.352 56.8653 185.958 57.15 185.443 57.3374ZM191.864 56.193L193.221 55.699L188.945 43.952L187.588 44.446L191.864 56.193ZM199.312 53.6498C199.806 53.47 200.228 53.2458 200.578 52.9772C200.931 52.7014 201.214 52.4039 201.428 52.0847C201.639 51.7604 201.788 51.4324 201.874 51.101C201.962 50.7624 201.991 50.4369 201.96 50.1244L201.953 50.0563L200.595 50.5503L200.59 50.6319C200.578 50.8248 200.51 51.035 200.386 51.2624C200.263 51.4899 200.08 51.7067 199.837 51.9129C199.594 52.1191 199.283 52.2913 198.903 52.4294C198.394 52.6149 197.911 52.664 197.455 52.5767C196.997 52.4841 196.59 52.2642 196.234 51.9168C195.876 51.5642 195.589 51.0889 195.371 50.4909L195.175 49.9527C194.946 49.3234 194.857 48.7552 194.908 48.2479C194.959 47.7405 195.121 47.3133 195.395 46.9662C195.673 46.612 196.038 46.3526 196.49 46.1879C196.943 46.0233 197.382 45.9841 197.808 46.0705C198.232 46.1517 198.62 46.3696 198.973 46.724C199.326 47.0785 199.623 47.586 199.863 48.2464L200.059 48.7846L200.369 47.5498L194.324 49.7501L194.719 50.8343L201.458 48.3814L201.265 47.851C200.96 47.0138 200.545 46.3345 200.02 45.8131C199.497 45.2847 198.896 44.944 198.217 44.791C197.542 44.6362 196.822 44.6978 196.058 44.9761C195.299 45.2524 194.703 45.6783 194.27 46.2538C193.838 46.8293 193.585 47.5015 193.511 48.2703C193.443 49.0371 193.567 49.8548 193.883 50.7232L193.886 50.731C194.206 51.6098 194.637 52.3184 195.181 52.8568C195.727 53.388 196.351 53.7264 197.052 53.8718C197.758 54.0153 198.511 53.9413 199.312 53.6498ZM211.808 49.1017C212.188 48.9635 212.517 48.7847 212.796 48.5653C213.074 48.3406 213.299 48.0789 213.473 47.78C213.652 47.4793 213.777 47.1485 213.845 46.7877L213.97 46.7423L214.422 47.9825L215.779 47.4886L213.684 41.732C213.472 41.1496 213.165 40.6958 212.764 40.3707C212.366 40.0384 211.888 39.8475 211.328 39.7981C210.773 39.7467 210.153 39.8459 209.466 40.0958C208.868 40.3134 208.369 40.601 207.97 40.9586C207.568 41.3109 207.279 41.7074 207.104 42.1481C206.932 42.5817 206.89 43.0328 206.978 43.5013L206.987 43.5509L208.345 43.0569L208.344 43.0307C208.334 42.6633 208.458 42.3326 208.716 42.0384C208.972 41.7391 209.352 41.4976 209.857 41.314C210.486 41.085 211.007 41.0515 211.419 41.2136C211.835 41.3685 212.137 41.706 212.326 42.226L213.28 44.8469C213.426 45.2473 213.453 45.6439 213.36 46.0369C213.273 46.4279 213.084 46.7823 212.793 47.1001C212.501 47.4127 212.123 47.6532 211.66 47.8217C211.171 47.9996 210.723 48.0302 210.315 47.9135C209.906 47.7917 209.624 47.5176 209.468 47.0911L209.463 47.0755C209.311 46.6595 209.34 46.2841 209.548 45.9493C209.761 45.6126 210.18 45.3097 210.807 45.0405L213.664 43.7887L213.269 42.7044L210.248 44.0159C209.612 44.2889 209.101 44.6101 208.717 44.9794C208.334 45.3488 208.087 45.7564 207.979 46.2023C207.868 46.6429 207.904 47.1129 208.086 47.6121L208.091 47.6277C208.277 48.1373 208.56 48.5348 208.941 48.8203C209.326 49.1038 209.767 49.2704 210.262 49.3199C210.762 49.3675 211.278 49.2948 211.808 49.1017ZM218.259 46.5857L219.617 46.0917L217.72 40.8812C217.571 40.4704 217.534 40.0775 217.609 39.7026C217.69 39.3258 217.865 38.991 218.136 38.6982C218.406 38.4055 218.757 38.1806 219.189 38.0235C219.339 37.9686 219.483 37.9253 219.618 37.8936C219.757 37.8548 219.902 37.8228 220.052 37.7977L219.572 36.4795C219.5 36.4937 219.398 36.5193 219.264 36.5562C219.134 36.586 219.003 36.6246 218.873 36.6719C218.307 36.8782 217.875 37.1736 217.579 37.558C217.284 37.9425 217.135 38.3851 217.135 38.8858L217.01 38.9312L216.556 37.6832L215.199 38.1771L218.259 46.5857ZM227.595 43.3555C228.089 43.1757 228.511 42.9515 228.861 42.6828C229.214 42.4071 229.498 42.1096 229.711 41.7904C229.923 41.466 230.072 41.1381 230.157 40.8066C230.246 40.4681 230.275 40.1426 230.243 39.8301L230.236 39.762L228.879 40.256L228.873 40.3375C228.861 40.5304 228.793 40.7406 228.67 40.9681C228.547 41.1955 228.363 41.4123 228.12 41.6185C227.878 41.8248 227.566 41.9969 227.187 42.1351C226.677 42.3206 226.194 42.3697 225.739 42.2823C225.281 42.1898 224.874 41.9698 224.518 41.6224C224.16 41.2699 223.872 40.7945 223.654 40.1965L223.458 39.6583C223.229 39.0291 223.14 38.4608 223.191 37.9535C223.242 37.4462 223.405 37.019 223.679 36.6719C223.956 36.3177 224.321 36.0582 224.774 35.8936C225.226 35.7289 225.665 35.6898 226.091 35.7762C226.515 35.8574 226.904 36.0752 227.257 36.4297C227.609 36.7842 227.906 37.2916 228.146 37.9521L228.342 38.4903L228.652 37.2555L222.607 39.4557L223.002 40.54L229.741 38.087L229.548 37.5566C229.244 36.7194 228.828 36.0401 228.303 35.5188C227.781 34.9904 227.18 34.6497 226.5 34.4967C225.825 34.3418 225.106 34.4035 224.341 34.6817C223.582 34.9581 222.986 35.384 222.554 35.9595C222.121 36.535 221.868 37.2071 221.795 37.9759C221.727 38.7428 221.85 39.5605 222.167 40.4289L222.169 40.4367C222.489 41.3155 222.921 42.0241 223.464 42.5624C224.011 43.0937 224.635 43.432 225.335 43.5774C226.041 43.7209 226.795 43.647 227.595 43.3555ZM240.669 38.5973C241.308 38.3645 241.841 38.0497 242.268 37.6529C242.7 37.2542 242.995 36.8111 243.154 36.3236C243.31 35.8309 243.297 35.335 243.116 34.8357L243.11 34.8201C242.89 34.2169 242.52 33.8069 242 33.59C241.484 33.3713 240.796 33.3096 239.936 33.4048L238.527 33.5641C238.17 33.6002 237.867 33.6014 237.619 33.5679C237.371 33.5344 237.172 33.4629 237.02 33.3532C236.868 33.2436 236.758 33.0952 236.69 32.908L236.684 32.8924C236.593 32.6427 236.589 32.3969 236.672 32.1548C236.755 31.9127 236.907 31.6923 237.129 31.4937C237.349 31.2899 237.626 31.1274 237.959 31.0063C238.468 30.8208 238.92 30.7743 239.312 30.8669C239.705 30.9594 240.007 31.156 240.216 31.4566L241.55 30.9712C241.321 30.5363 241.005 30.2009 240.601 29.9651C240.202 29.7274 239.741 29.6008 239.217 29.5854C238.697 29.5629 238.142 29.6585 237.555 29.8724C236.962 30.0882 236.468 30.3888 236.072 30.7742C235.677 31.1596 235.408 31.5871 235.267 32.0566C235.131 32.5243 235.148 32.9921 235.318 33.4601L235.321 33.4679C235.467 33.8683 235.674 34.1874 235.943 34.4251C236.211 34.6577 236.55 34.8138 236.962 34.8936C237.372 34.9682 237.862 34.9723 238.433 34.9059L239.849 34.7438C240.414 34.6793 240.849 34.7069 241.151 34.8264C241.452 34.9407 241.654 35.1409 241.758 35.4269L241.764 35.4425C241.857 35.6973 241.856 35.9538 241.761 36.212C241.665 36.4649 241.492 36.7016 241.243 36.922C240.996 37.1353 240.683 37.311 240.304 37.4492C239.768 37.6442 239.295 37.6956 238.885 37.6035C238.474 37.5114 238.148 37.312 237.907 37.0053L236.519 37.5106C236.739 37.9545 237.055 38.296 237.466 38.5351C237.882 38.7723 238.364 38.9001 238.913 38.9183C239.459 38.9314 240.045 38.8244 240.669 38.5973ZM249.6 35.3466C250.401 35.0551 251.026 34.6301 251.477 34.0716C251.925 33.5079 252.187 32.8443 252.263 32.0807C252.343 31.3152 252.221 30.4853 251.895 29.5909L251.889 29.5753C251.562 28.6757 251.121 27.9586 250.568 27.424C250.019 26.8875 249.393 26.5502 248.689 26.4118C247.985 26.2735 247.232 26.3501 246.431 26.6416C245.636 26.9312 245.01 27.3561 244.555 27.9165C244.104 28.475 243.839 29.137 243.758 29.9025C243.683 30.6661 243.809 31.4977 244.136 32.3973L244.142 32.4129C244.467 33.3073 244.904 34.0227 245.453 34.5592C246.007 35.0937 246.637 35.4328 247.343 35.5763C248.052 35.7127 248.804 35.6362 249.6 35.3466ZM249.163 34.1453C248.632 34.3384 248.137 34.3773 247.677 34.2621C247.217 34.1469 246.803 33.8912 246.435 33.4951C246.072 33.0971 245.771 32.5679 245.53 31.9075L245.525 31.8919C245.282 31.2263 245.172 30.6245 245.194 30.0864C245.221 29.5465 245.375 29.0871 245.655 28.7084C245.934 28.3244 246.338 28.0359 246.869 27.8428C247.399 27.6497 247.894 27.6108 248.354 27.7261C248.813 27.8361 249.223 28.0901 249.586 28.4881C249.954 28.8842 250.259 29.415 250.501 30.0806L250.507 30.0962C250.747 30.7566 250.854 31.3568 250.826 31.8967C250.804 32.4348 250.654 32.8958 250.376 33.2798C250.097 33.6638 249.693 33.9523 249.163 34.1453ZM32.596 137.741C32.9756 137.603 33.3051 137.424 33.5844 137.205C33.8619 136.98 34.0876 136.719 34.2615 136.42C34.4406 136.119 34.5646 135.788 34.6335 135.427L34.7583 135.382L35.2097 136.622L36.5669 136.128L34.4717 130.372C34.2597 129.789 33.9532 129.336 33.5522 129.01C33.1545 128.678 32.6758 128.487 32.116 128.438C31.5614 128.386 30.9409 128.486 30.2544 128.735C29.6564 128.953 29.1575 129.241 28.7576 129.598C28.3558 129.951 28.0673 130.347 27.892 130.788C27.7201 131.221 27.6781 131.672 27.7662 132.141L27.7754 132.191L29.1327 131.697L29.132 131.67C29.1219 131.303 29.2459 130.972 29.504 130.678C29.7601 130.379 30.1404 130.137 30.6448 129.954C31.2741 129.725 31.7948 129.691 32.2071 129.853C32.6228 130.008 32.9252 130.346 33.1145 130.866L34.0684 133.487C34.2141 133.887 34.2407 134.284 34.1482 134.677C34.0608 135.068 33.8718 135.422 33.5812 135.74C33.2886 136.052 32.9109 136.293 32.4481 136.461C31.9593 136.639 31.5111 136.67 31.1035 136.553C30.694 136.431 30.4117 136.157 30.2565 135.731L30.2508 135.715C30.0994 135.299 30.1277 134.924 30.3356 134.589C30.5487 134.252 30.9685 133.949 31.5948 133.68L34.4518 132.428L34.0571 131.344L31.0364 132.656C30.3996 132.929 29.8894 133.25 29.5056 133.619C29.1218 133.989 28.8756 134.396 28.767 134.842C28.6564 135.283 28.692 135.753 28.8737 136.252L28.8794 136.267C29.0649 136.777 29.348 137.175 29.7287 137.46C30.1145 137.744 30.555 137.91 31.05 137.96C31.5502 138.007 32.0656 137.934 32.596 137.741ZM39.0474 135.225L40.4046 134.731L38.5933 129.755C38.4135 129.261 38.3477 128.805 38.3958 128.387C38.4491 127.967 38.6045 127.601 38.8621 127.29C39.1197 126.978 39.4721 126.741 39.9193 126.578C40.5901 126.334 41.1513 126.339 41.6029 126.593C42.0578 126.839 42.4234 127.342 42.6997 128.101L44.5621 133.218L45.9194 132.724L43.9377 127.28C43.5743 126.281 43.0403 125.607 42.3358 125.257C41.6345 124.9 40.8107 124.893 39.8643 125.238C39.2454 125.463 38.7813 125.773 38.4717 126.169C38.1602 126.559 37.9793 127.016 37.9289 127.541L37.8041 127.587L37.3441 126.323L35.9869 126.817L39.0474 135.225ZM51.3866 130.805C51.5218 130.756 51.6516 130.7 51.7759 130.637C51.9002 130.574 52.0236 130.508 52.146 130.44L51.7258 129.286C51.6048 129.342 51.5011 129.388 51.4146 129.426C51.3332 129.461 51.2328 129.501 51.1132 129.544C50.6764 129.703 50.3256 129.71 50.0608 129.565C49.7941 129.415 49.5708 129.093 49.391 128.599L47.6592 123.841L49.5 123.171L49.0912 122.047L47.2504 122.717L46.4583 120.541L45.0543 121.052L45.8463 123.228L44.5203 123.711L44.9291 124.834L46.2552 124.352L48.1119 129.453C48.4034 130.254 48.8049 130.758 49.3165 130.967C49.8334 131.173 50.5234 131.119 51.3866 130.805ZM54.2109 129.706L55.5682 129.212L52.5077 120.804L51.1505 121.298L54.2109 129.706ZM51.2464 119.426C51.5064 119.331 51.6943 119.159 51.81 118.911C51.9239 118.658 51.9344 118.404 51.8417 118.149C51.7471 117.889 51.5756 117.701 51.3274 117.585C51.0791 117.469 50.825 117.459 50.565 117.553C50.3102 117.646 50.1223 117.818 50.0013 118.068C49.8856 118.316 49.875 118.57 49.9697 118.83C50.0624 119.085 50.2338 119.273 50.484 119.394C50.7374 119.508 50.9916 119.518 51.2464 119.426ZM63.6416 129.454L64.9988 128.96L63.4941 124.826L63.6189 124.78C63.8847 125.025 64.1874 125.21 64.5269 125.333C64.8716 125.455 65.2356 125.517 65.6191 125.519C66.0058 125.514 66.3916 125.441 66.7764 125.301C67.4888 125.041 68.0423 124.637 68.4369 124.087C68.8367 123.535 69.064 122.881 69.1186 122.125C69.1732 121.369 69.0406 120.552 68.7207 119.673L68.715 119.657C68.3971 118.784 67.9742 118.075 67.4464 117.531C66.9186 116.987 66.3242 116.632 65.6632 116.466C65.0055 116.293 64.3204 116.336 63.608 116.596C63.218 116.738 62.8784 116.929 62.5891 117.17C62.2998 117.411 62.0659 117.69 61.8872 118.008C61.7067 118.321 61.5875 118.665 61.5294 119.04L61.4046 119.085L60.9163 117.743L59.5591 118.237L63.6416 129.454ZM66.0272 124.213C65.5175 124.399 65.0318 124.431 64.5698 124.311C64.1079 124.19 63.6929 123.932 63.325 123.536C62.9551 123.135 62.6529 122.612 62.4182 121.967L62.4125 121.951C62.1759 121.301 62.0712 120.706 62.0985 120.166C62.1258 119.626 62.2776 119.162 62.5541 118.773C62.8306 118.383 63.2236 118.096 63.7332 117.911C64.248 117.723 64.7338 117.691 65.1906 117.813C65.6454 117.93 66.0542 118.188 66.417 118.586C66.7849 118.982 67.0881 119.507 67.3266 120.163L67.3323 120.178C67.5689 120.828 67.6745 121.426 67.6491 121.971C67.6271 122.509 67.4804 122.972 67.2091 123.359C66.936 123.741 66.542 124.026 66.0272 124.213ZM72.401 123.086L73.7582 122.592L70.6977 114.183L69.3405 114.677L72.401 123.086ZM69.4364 112.805C69.6964 112.71 69.8843 112.539 70 112.291C70.1139 112.037 70.1245 111.783 70.0317 111.528C69.9371 111.268 69.7657 111.08 69.5174 110.965C69.2692 110.849 69.015 110.838 68.755 110.933C68.5002 111.026 68.3123 111.197 68.1914 111.447C68.0756 111.695 68.065 111.95 68.1597 112.21C68.2524 112.464 68.4239 112.652 68.674 112.773C68.9275 112.887 69.1816 112.898 69.4364 112.805ZM76.3167 121.661L77.6739 121.167L75.8626 116.19C75.6828 115.696 75.6169 115.24 75.665 114.822C75.7183 114.402 75.8738 114.036 76.1314 113.725C76.3889 113.413 76.7413 113.176 77.1885 113.013C77.8594 112.769 78.4206 112.774 78.8721 113.028C79.327 113.274 79.6927 113.777 79.969 114.536L81.8314 119.653L83.1886 119.159L81.207 113.715C80.8436 112.716 80.3096 112.042 79.605 111.692C78.9038 111.335 78.08 111.328 77.1335 111.673C76.5147 111.898 76.0505 112.208 75.741 112.604C75.4295 112.994 75.2486 113.451 75.1981 113.976L75.0733 114.022L74.6134 112.758L73.2562 113.252L76.3167 121.661ZM89.1317 117.164C89.6257 116.984 90.0476 116.76 90.3974 116.491C90.7505 116.216 91.0338 115.918 91.2474 115.599C91.4592 115.275 91.6078 114.947 91.6932 114.615C91.782 114.277 91.8108 113.951 91.7795 113.639L91.7724 113.571L90.4151 114.065L90.4095 114.146C90.3972 114.339 90.3295 114.549 90.2061 114.777C90.0828 115.004 89.8997 115.221 89.6567 115.427C89.4137 115.633 89.1025 115.806 88.7229 115.944C88.2132 116.129 87.7305 116.178 87.2747 116.091C86.8171 115.998 86.4102 115.778 86.054 115.431C85.696 115.078 85.4082 114.603 85.1905 114.005L84.9947 113.467C84.7656 112.838 84.6766 112.269 84.7275 111.762C84.7784 111.255 84.9409 110.828 85.215 110.48C85.4925 110.126 85.8574 109.867 86.3098 109.702C86.7622 109.538 87.2014 109.498 87.6274 109.585C88.0515 109.666 88.44 109.884 88.7928 110.238C89.1456 110.593 89.4422 111.1 89.6826 111.761L89.8785 112.299L90.1887 111.064L84.1436 113.264L84.5382 114.349L91.2776 111.896L91.0845 111.365C90.7798 110.528 90.3647 109.849 89.8393 109.327C89.3172 108.799 88.7162 108.458 88.0362 108.305C87.3615 108.15 86.642 108.212 85.8775 108.49C85.1183 108.767 84.5225 109.193 84.0901 109.768C83.6576 110.344 83.4047 111.016 83.3311 111.785C83.2628 112.551 83.3867 113.369 83.7028 114.237L83.7056 114.245C84.0255 115.124 84.4571 115.833 85.0005 116.371C85.5472 116.902 86.1709 117.241 86.8716 117.386C87.5775 117.53 88.3309 117.456 89.1317 117.164ZM97.1347 114.251C97.5143 114.113 97.8438 113.934 98.1231 113.715C98.4006 113.49 98.6263 113.228 98.8002 112.93C98.9793 112.629 99.1033 112.298 99.1722 111.937L99.297 111.892L99.7484 113.132L101.106 112.638L99.0104 106.882C98.7985 106.299 98.492 105.845 98.0909 105.52C97.6932 105.188 97.2145 104.997 96.6547 104.948C96.1001 104.896 95.4796 104.995 94.7931 105.245C94.1951 105.463 93.6962 105.751 93.2963 106.108C92.8945 106.46 92.606 106.857 92.4308 107.298C92.2588 107.731 92.2168 108.182 92.3049 108.651L92.3142 108.7L93.6714 108.206L93.6707 108.18C93.6606 107.813 93.7846 107.482 94.0427 107.188C94.2989 106.889 94.6791 106.647 95.1836 106.464C95.8128 106.235 96.3335 106.201 96.7459 106.363C97.1615 106.518 97.4639 106.856 97.6532 107.376L98.6071 109.996C98.7529 110.397 98.7795 110.793 98.6869 111.186C98.5995 111.577 98.4105 111.932 98.1199 112.25C97.8273 112.562 97.4496 112.803 96.9868 112.971C96.498 113.149 96.0498 113.18 95.6422 113.063C95.2327 112.941 94.9504 112.667 94.7952 112.241L94.7895 112.225C94.6381 111.809 94.6664 111.434 94.8743 111.099C95.0874 110.762 95.5072 110.459 96.1335 110.19L98.9905 108.938L98.5959 107.854L95.5751 109.165C94.9383 109.438 94.4281 109.76 94.0443 110.129C93.6605 110.498 93.4143 110.906 93.3057 111.352C93.1952 111.792 93.2308 112.262 93.4125 112.762L93.4181 112.777C93.6036 113.287 93.8867 113.684 94.2674 113.97C94.6533 114.253 95.0937 114.42 95.5887 114.469C96.089 114.517 96.6043 114.444 97.1347 114.251ZM104.608 114.543L105.965 114.049L104.461 109.915L104.586 109.87C104.851 110.115 105.154 110.299 105.493 110.423C105.838 110.545 106.202 110.606 106.586 110.608C106.972 110.603 107.358 110.53 107.743 110.39C108.455 110.131 109.009 109.726 109.403 109.176C109.803 108.624 110.031 107.97 110.085 107.214C110.14 106.458 110.007 105.641 109.687 104.762L109.682 104.747C109.364 103.873 108.941 103.164 108.413 102.62C107.885 102.076 107.291 101.721 106.63 101.555C105.972 101.383 105.287 101.426 104.575 101.685C104.185 101.827 103.845 102.018 103.556 102.259C103.266 102.5 103.032 102.779 102.854 103.098C102.673 103.411 102.554 103.754 102.496 104.129L102.371 104.174L101.883 102.833L100.526 103.327L104.608 114.543ZM106.994 109.302C106.484 109.488 105.998 109.521 105.536 109.4C105.074 109.28 104.659 109.021 104.292 108.625C103.922 108.224 103.619 107.701 103.385 107.056L103.379 107.041C103.142 106.391 103.038 105.796 103.065 105.256C103.092 104.716 103.244 104.251 103.521 103.862C103.797 103.473 104.19 103.185 104.7 103C105.215 102.813 105.7 102.78 106.157 102.902C106.612 103.019 107.021 103.277 107.384 103.675C107.751 104.071 108.055 104.597 108.293 105.252L108.299 105.268C108.535 105.918 108.641 106.515 108.616 107.06C108.594 107.598 108.447 108.061 108.176 108.448C107.903 108.83 107.509 109.115 106.994 109.302ZM114.358 110.995L115.716 110.501L114.211 106.366L114.336 106.321C114.602 106.566 114.904 106.75 115.244 106.874C115.588 106.996 115.952 107.058 116.336 107.059C116.723 107.054 117.108 106.981 117.493 106.841C118.206 106.582 118.759 106.177 119.154 105.627C119.554 105.076 119.781 104.422 119.835 103.666C119.89 102.91 119.757 102.092 119.438 101.213L119.432 101.198C119.114 100.324 118.691 99.6154 118.163 99.0714C117.635 98.5273 117.041 98.1724 116.38 98.0067C115.722 97.8338 115.037 97.8771 114.325 98.1364C113.935 98.2783 113.595 98.4697 113.306 98.7104C113.017 98.9511 112.783 99.2306 112.604 99.5489C112.424 99.8619 112.304 100.206 112.246 100.58L112.121 100.626L111.633 99.2839L110.276 99.7779L114.358 110.995ZM116.744 105.754C116.234 105.939 115.749 105.972 115.287 105.851C114.825 105.731 114.41 105.473 114.042 105.077C113.672 104.675 113.37 104.152 113.135 103.507L113.129 103.492C112.893 102.842 112.788 102.247 112.815 101.707C112.843 101.167 112.994 100.702 113.271 100.313C113.547 99.924 113.94 99.6366 114.45 99.4512C114.965 99.2638 115.451 99.2312 115.907 99.3536C116.362 99.4707 116.771 99.7282 117.134 100.126C117.502 100.522 117.805 101.048 118.043 101.703L118.049 101.719C118.286 102.369 118.391 102.966 118.366 103.511C118.344 104.05 118.197 104.512 117.926 104.899C117.653 105.282 117.259 105.566 116.744 105.754ZM123.165 104.609L124.522 104.115L120.246 92.3682L118.889 92.8622L123.165 104.609ZM130.613 102.066C131.107 101.886 131.529 101.662 131.879 101.393C132.232 101.118 132.515 100.82 132.729 100.501C132.941 100.177 133.089 99.8487 133.175 99.5173C133.263 99.1787 133.292 98.8532 133.261 98.5407L133.254 98.4726L131.896 98.9666L131.891 99.0482C131.879 99.2411 131.811 99.4512 131.687 99.6787C131.564 99.9061 131.381 100.123 131.138 100.329C130.895 100.535 130.584 100.708 130.204 100.846C129.695 101.031 129.212 101.08 128.756 100.993C128.298 100.9 127.892 100.68 127.535 100.333C127.177 99.9805 126.89 99.5052 126.672 98.9072L126.476 98.3689C126.247 97.7397 126.158 97.1715 126.209 96.6641C126.26 96.1568 126.422 95.7296 126.696 95.3825C126.974 95.0283 127.339 94.7689 127.791 94.6042C128.244 94.4395 128.683 94.4004 129.109 94.4868C129.533 94.568 129.921 94.7858 130.274 95.1403C130.627 95.4948 130.924 96.0023 131.164 96.6627L131.36 97.2009L131.67 95.9661L125.625 98.1664L126.02 99.2506L132.759 96.7977L132.566 96.2673C132.261 95.43 131.846 94.7508 131.321 94.2294C130.799 93.701 130.198 93.3603 129.518 93.2073C128.843 93.0524 128.123 93.1141 127.359 93.3923C126.6 93.6687 126.004 94.0946 125.571 94.6701C125.139 95.2456 124.886 95.9178 124.812 96.6865C124.744 97.4534 124.868 98.2711 125.184 99.1395L125.187 99.1473C125.507 100.026 125.938 100.735 126.482 101.273C127.029 101.804 127.652 102.143 128.353 102.288C129.059 102.432 129.812 102.358 130.613 102.066ZM141.768 101.018L143.125 100.524L141.621 96.3901L141.746 96.3447C142.011 96.5895 142.314 96.7738 142.653 96.8976C142.998 97.0195 143.362 97.0813 143.746 97.0831C144.132 97.0777 144.518 97.0051 144.903 96.865C145.615 96.6057 146.169 96.2011 146.564 95.6511C146.963 95.0992 147.191 94.4453 147.245 93.6893C147.3 92.9333 147.167 92.1159 146.847 91.2371L146.842 91.2215C146.524 90.3478 146.101 89.639 145.573 89.095C145.045 88.551 144.451 88.1961 143.79 88.0303C143.132 87.8575 142.447 87.9007 141.735 88.16C141.345 88.302 141.005 88.4933 140.716 88.734C140.426 88.9748 140.192 89.2543 140.014 89.5725C139.833 89.8855 139.714 90.2293 139.656 90.6037L139.531 90.6492L139.043 89.3075L137.686 89.8015L141.768 101.018ZM144.154 95.7773C143.644 95.9628 143.158 95.9953 142.696 95.8749C142.234 95.7545 141.82 95.4962 141.452 95.1002C141.082 94.6989 140.779 94.1758 140.545 93.531L140.539 93.5154C140.303 92.8654 140.198 92.2704 140.225 91.7305C140.252 91.1905 140.404 90.726 140.681 90.3368C140.957 89.9476 141.35 89.6603 141.86 89.4748C142.375 89.2874 142.86 89.2549 143.317 89.3772C143.772 89.4943 144.181 89.7519 144.544 90.1498C144.912 90.5459 145.215 91.0716 145.453 91.7268L145.459 91.7424C145.696 92.3924 145.801 92.99 145.776 93.5351C145.754 94.0732 145.607 94.5358 145.336 94.9231C145.063 95.3052 144.669 95.59 144.154 95.7773ZM150.528 94.65L151.885 94.156L148.824 85.7474L147.467 86.2414L150.528 94.65ZM147.563 84.3691C147.823 84.2745 148.011 84.103 148.127 83.8548C148.241 83.6013 148.251 83.3472 148.158 83.0924C148.064 82.8324 147.892 82.6445 147.644 82.5288C147.396 82.413 147.142 82.4024 146.882 82.4971C146.627 82.5898 146.439 82.7613 146.318 83.0114C146.202 83.2596 146.192 83.5138 146.286 83.7738C146.379 84.0286 146.55 84.2165 146.801 84.3374C147.054 84.4513 147.308 84.4619 147.563 84.3691ZM154.248 93.2958L160.722 90.9394L160.314 89.8161L155.462 91.582L155.416 91.4572L158.005 83.5455L157.639 82.5393L151.196 84.8843L151.604 86.0076L156.448 84.2445L156.494 84.3693L153.891 92.3129L154.248 93.2958ZM162.86 90.1615L169.334 87.8051L168.925 86.6818L164.073 88.4477L164.028 88.3229L166.616 80.4112L166.25 79.405L159.807 81.75L160.216 82.8733L165.06 81.1102L165.105 81.235L162.502 89.1786L162.86 90.1615ZM174.029 86.264C174.409 86.1259 174.738 85.9471 175.017 85.7276C175.295 85.503 175.52 85.2412 175.694 84.9423C175.873 84.6416 175.997 84.3108 176.066 83.9501L176.191 83.9047L176.643 85.1449L178 84.6509L175.905 78.8944C175.693 78.312 175.386 77.8582 174.985 77.533C174.587 77.2008 174.109 77.0099 173.549 76.9604C172.994 76.909 172.374 77.0083 171.687 77.2581C171.089 77.4758 170.59 77.7634 170.191 78.1209C169.789 78.4733 169.5 78.8698 169.325 79.3105C169.153 79.7441 169.111 80.1951 169.199 80.6636L169.208 80.7133L170.566 80.2193L170.565 80.193C170.555 79.8257 170.679 79.4949 170.937 79.2008C171.193 78.9014 171.573 78.66 172.078 78.4764C172.707 78.2474 173.228 78.2139 173.64 78.3759C174.056 78.5309 174.358 78.8683 174.547 79.3884L175.501 82.0092C175.647 82.4096 175.674 82.8063 175.581 83.1992C175.494 83.5902 175.305 83.9446 175.014 84.2624C174.722 84.575 174.344 84.8156 173.881 84.984C173.392 85.1619 172.944 85.1926 172.536 85.0759C172.127 84.954 171.845 84.6799 171.689 84.2535L171.684 84.2379C171.532 83.8219 171.561 83.4465 171.769 83.1117C171.982 82.775 172.401 82.4721 173.028 82.2028L175.885 80.951L175.49 79.8668L172.469 81.1782C171.833 81.4512 171.322 81.7724 170.938 82.1418C170.555 82.5111 170.308 82.9187 170.2 83.3646C170.089 83.8053 170.125 84.2752 170.307 84.7744L170.312 84.79C170.498 85.2997 170.781 85.6972 171.162 85.9826C171.547 86.2662 171.988 86.4327 172.483 86.4822C172.983 86.5298 173.498 86.4571 174.029 86.264ZM181.616 83.4229C181.897 83.3207 182.1 83.1349 182.226 82.8654C182.35 82.5906 182.362 82.3155 182.261 82.0399C182.159 81.759 181.973 81.5558 181.704 81.4301C181.434 81.3044 181.159 81.2927 180.878 81.3949C180.603 81.4952 180.399 81.6811 180.268 81.9525C180.143 82.222 180.131 82.4972 180.233 82.778C180.334 83.0536 180.519 83.2569 180.791 83.3877C181.066 83.5115 181.341 83.5233 181.616 83.4229ZM189.887 80.3242L191.291 79.8132L187.195 68.5575L185.791 69.0686L189.887 80.3242ZM198.561 77.1672L199.918 76.6732L195.643 64.9261L194.286 65.4201L198.561 77.1672ZM203.857 75.2395L205.566 74.6178L199.758 71.087L199.075 72.3162L203.857 75.2395ZM198.645 73.7092L199.461 72.0431L199.672 71.604L202.263 66.2972L200.618 66.8962L198.32 71.8931L197.961 72.0237L198.645 73.7092ZM207.188 74.0272L208.545 73.5332L205.485 65.1246L204.128 65.6186L207.188 74.0272ZM204.224 63.7464C204.484 63.6517 204.671 63.4803 204.787 63.232C204.901 62.9786 204.912 62.7245 204.819 62.4697C204.724 62.2097 204.553 62.0218 204.305 61.906C204.056 61.7902 203.802 61.7797 203.542 61.8743C203.287 61.9671 203.099 62.1385 202.979 62.3886C202.863 62.6369 202.852 62.891 202.947 63.151C203.04 63.4058 203.211 63.5937 203.461 63.7147C203.715 63.8285 203.969 63.8391 204.224 63.7464ZM211.104 72.602L212.461 72.108L210.65 67.1315C210.47 66.6375 210.404 66.1815 210.452 65.7636C210.505 65.3437 210.661 64.978 210.919 64.6663C211.176 64.3547 211.528 64.1175 211.976 63.9547C212.647 63.7106 213.208 63.7153 213.659 63.9691C214.114 64.2158 214.48 64.7187 214.756 65.4779L216.619 70.5948L217.976 70.1009L215.994 64.6563C215.631 63.6579 215.097 62.9836 214.392 62.6335C213.691 62.2763 212.867 62.2699 211.921 62.6144C211.302 62.8396 210.838 63.1499 210.528 63.5452C210.217 63.9354 210.036 64.3928 209.985 64.9177L209.86 64.9631L209.401 63.6995L208.043 64.1934L211.104 72.602ZM223.591 68.2248C223.981 68.0829 224.321 67.8915 224.61 67.6508C224.899 67.4101 225.134 67.1332 225.315 66.8201C225.493 66.5019 225.612 66.1555 225.67 65.7811L225.795 65.7356L226.283 67.0773L227.64 66.5833L223.365 54.8362L222.007 55.3302L223.705 59.9947L223.58 60.0401C223.32 59.7934 223.017 59.6091 222.672 59.4872C222.328 59.3654 221.962 59.3071 221.575 59.3124C221.192 59.3106 220.808 59.3798 220.423 59.5198C219.71 59.7791 219.154 60.1847 218.755 60.7366C218.36 61.2865 218.135 61.9395 218.081 62.6955C218.026 63.4515 218.159 64.2689 218.479 65.1478L218.484 65.1634C218.802 66.037 219.226 66.7484 219.756 67.2976C220.284 67.8417 220.878 68.1965 221.539 68.3623C222.2 68.5281 222.884 68.4822 223.591 68.2248ZM223.466 66.91C222.956 67.0955 222.472 67.1306 222.012 67.0154C221.555 66.8931 221.142 66.6339 220.775 66.2378C220.41 65.8346 220.109 65.308 219.873 64.658L219.867 64.6424C219.629 63.9872 219.52 63.3906 219.542 62.8525C219.57 62.3126 219.72 61.8516 219.993 61.4695C220.269 61.0803 220.663 60.793 221.172 60.6075C221.682 60.422 222.168 60.3895 222.629 60.5099C223.091 60.6303 223.506 60.8886 223.874 61.2847C224.242 61.6808 224.545 62.2038 224.781 62.8538L224.787 62.8694C225.021 63.5142 225.126 64.1092 225.101 64.6543C225.074 65.1943 224.922 65.6588 224.645 66.048C224.369 66.4372 223.976 66.7245 223.466 66.91ZM238.248 62.8903C239.049 62.5988 239.674 62.1738 240.125 61.6153C240.573 61.0516 240.835 60.388 240.911 59.6244C240.991 58.8589 240.869 58.029 240.543 57.1346L240.537 57.119C240.21 56.2194 239.769 55.5023 239.216 54.9677C238.667 54.4312 238.041 54.0939 237.337 53.9555C236.633 53.8172 235.88 53.8938 235.079 54.1853C234.284 54.4749 233.658 54.8998 233.203 55.4602C232.752 56.0187 232.487 56.6807 232.406 57.4462C232.331 58.2098 232.457 59.0414 232.784 59.941L232.79 59.9566C233.115 60.851 233.552 61.5664 234.101 62.1029C234.655 62.6374 235.285 62.9765 235.991 63.12C236.7 63.2564 237.452 63.1799 238.248 62.8903ZM237.811 61.689C237.28 61.8821 236.785 61.921 236.325 61.8058C235.865 61.6906 235.451 61.4349 235.083 61.0388C234.72 60.6408 234.419 60.1116 234.178 59.4512L234.173 59.4356C233.93 58.77 233.82 58.1682 233.842 57.6301C233.869 57.0902 234.023 56.6308 234.303 56.2521C234.582 55.8681 234.986 55.5796 235.517 55.3865C236.047 55.1934 236.542 55.1545 237.002 55.2698C237.461 55.3798 237.871 55.6338 238.234 56.0318C238.602 56.4279 238.907 56.9587 239.149 57.6243L239.155 57.6399C239.395 58.3003 239.502 58.9005 239.474 59.4404C239.452 59.9785 239.302 60.4395 239.024 60.8235C238.745 61.2075 238.341 61.496 237.811 61.689ZM244.738 60.3601L246.095 59.8661L243.444 52.5808L245.355 51.8852L244.946 50.762L243.035 51.4575L242.708 50.5605C242.54 50.0977 242.517 49.7114 242.64 49.4017C242.768 49.0901 243.074 48.8463 243.558 48.6703C243.677 48.6268 243.792 48.5877 243.904 48.5532C244.015 48.5186 244.115 48.494 244.204 48.4793L243.809 47.3951C243.659 47.4202 243.507 47.455 243.352 47.4995C243.201 47.5369 243.042 47.5859 242.876 47.6464C242.345 47.8395 241.931 48.0933 241.633 48.4077C241.334 48.717 241.158 49.0904 241.105 49.5277C241.055 49.958 241.133 50.4539 241.337 51.0155L241.678 51.9515L240.281 52.4597L240.69 53.5829L242.087 53.0748L244.738 60.3601ZM37.8356 159.078L39.1929 158.584L34.9173 146.837L33.56 147.331L37.8356 159.078ZM41.8293 157.625L43.1866 157.131L40.1261 148.722L38.7688 149.216L41.8293 157.625ZM38.8647 147.344C39.1247 147.249 39.3126 147.078 39.4284 146.83C39.5423 146.576 39.5528 146.322 39.4601 146.067C39.3654 145.807 39.194 145.619 38.9458 145.504C38.6975 145.388 38.4434 145.377 38.1834 145.472C37.9286 145.565 37.7407 145.736 37.6197 145.986C37.504 146.234 37.4934 146.489 37.588 146.749C37.6808 147.003 37.8522 147.191 38.1024 147.312C38.3558 147.426 38.6099 147.437 38.8647 147.344ZM45.823 156.171L47.1802 155.677L42.9047 143.93L41.5474 144.424L45.823 156.171ZM51.1193 154.244L52.8276 153.622L47.0197 150.091L46.3365 151.32L51.1193 154.244ZM45.9071 152.713L46.7229 151.047L46.9341 150.608L49.5253 145.301L47.8795 145.9L45.5818 150.897L45.2229 151.028L45.9071 152.713ZM57.5148 152.084C58.0088 151.904 58.4307 151.68 58.7805 151.411C59.1336 151.135 59.417 150.838 59.6306 150.519C59.8423 150.194 59.9909 149.866 60.0764 149.535C60.1651 149.196 60.1939 148.871 60.1626 148.558L60.1555 148.49L58.7982 148.984L58.7926 149.066C58.7804 149.259 58.7126 149.469 58.5892 149.696C58.4659 149.924 58.2828 150.14 58.0398 150.347C57.7969 150.553 57.4856 150.725 57.106 150.863C56.5964 151.049 56.1137 151.098 55.6579 151.01C55.2002 150.918 54.7933 150.698 54.4372 150.351C54.0792 149.998 53.7913 149.523 53.5737 148.925L53.3778 148.386C53.1488 147.757 53.0597 147.189 53.1106 146.682C53.1615 146.174 53.3241 145.747 53.5982 145.4C53.8756 145.046 54.2405 144.786 54.6929 144.622C55.1453 144.457 55.5845 144.418 56.0105 144.504C56.4347 144.585 56.8231 144.803 57.1759 145.158C57.5287 145.512 57.8253 146.02 58.0657 146.68L58.2616 147.218L58.5718 145.984L52.5267 148.184L52.9213 149.268L59.6607 146.815L59.4676 146.285C59.1629 145.448 58.7478 144.768 58.2224 144.247C57.7003 143.718 57.0993 143.378 56.4194 143.225C55.7447 143.07 55.0251 143.132 54.2607 143.41C53.5014 143.686 52.9056 144.112 52.4732 144.688C52.0408 145.263 51.7878 145.935 51.7142 146.704C51.6459 147.471 51.7698 148.289 52.0859 149.157L52.0887 149.165C52.4086 150.044 52.8402 150.752 53.3836 151.291C53.9303 151.822 54.554 152.16 55.2547 152.306C55.9606 152.449 56.714 152.375 57.5148 152.084ZM67.6791 148.216L69.0364 147.722L65.9759 139.314L64.6186 139.808L67.6791 148.216ZM64.7145 137.935C64.9746 137.841 65.1624 137.669 65.2782 137.421C65.3921 137.168 65.4026 136.914 65.3099 136.659C65.2152 136.399 65.0438 136.211 64.7956 136.095C64.5473 135.979 64.2932 135.969 64.0332 136.063C63.7784 136.156 63.5905 136.328 63.4695 136.578C63.3538 136.826 63.3432 137.08 63.4378 137.34C63.5306 137.595 63.702 137.783 63.9522 137.904C64.2056 138.018 64.4597 138.028 64.7145 137.935ZM74.605 145.766C74.7402 145.717 74.87 145.661 74.9943 145.598C75.1186 145.535 75.242 145.47 75.3644 145.401L74.9443 144.247C74.8232 144.303 74.7195 144.349 74.633 144.387C74.5517 144.422 74.4512 144.462 74.3316 144.505C73.8948 144.664 73.544 144.671 73.2792 144.526C73.0125 144.376 72.7892 144.054 72.6094 143.56L70.8776 138.802L72.7185 138.132L72.3096 137.008L70.4688 137.678L69.6767 135.502L68.2727 136.013L69.0648 138.189L67.7387 138.672L68.1475 139.795L69.4736 139.313L71.3303 144.414C71.6218 145.215 72.0233 145.719 72.5349 145.928C73.0518 146.134 73.7418 146.08 74.605 145.766ZM78.5342 144.354C78.815 144.251 79.0182 144.066 79.1439 143.796C79.2677 143.521 79.2794 143.246 79.1791 142.971C79.0769 142.69 78.8911 142.487 78.6215 142.361C78.352 142.235 78.0768 142.223 77.796 142.326C77.5204 142.426 77.3172 142.612 77.1863 142.883C77.0606 143.153 77.0489 143.428 77.1511 143.709C77.2514 143.984 77.4373 144.188 77.7087 144.318C77.9834 144.442 78.2586 144.454 78.5342 144.354Z" fill="black"/>
</svg>
