<svg width="303" height="191" viewBox="0 0 303 191" fill="none" xmlns="http://www.w3.org/2000/svg">
<path fill-rule="evenodd" clip-rule="evenodd" d="M278.367 18.5007C275.494 10.6066 274.057 6.65951 271.423 4.20351C269.107 2.04315 266.166 0.671664 263.022 0.285619C259.447 -0.153254 255.5 1.28336 247.606 4.1566L19.2607 87.2675C11.3665 90.1407 7.41943 91.5774 4.96343 94.2111C2.80307 96.5278 1.43158 99.4689 1.04554 102.613C0.606666 106.187 2.04328 110.134 4.91652 118.029L24.7537 172.531C27.6269 180.425 29.0636 184.372 31.6973 186.828C34.014 188.988 36.9551 190.36 40.0992 190.746C43.6736 191.185 47.6206 189.748 55.5148 186.875L283.86 103.764C291.754 100.891 295.701 99.4542 298.157 96.8204C300.318 94.5037 301.689 91.5626 302.075 88.4185C302.514 84.8442 301.077 80.8971 298.204 73.0029L278.367 18.5007Z" fill="#007AFF"/>
</svg>
