<svg width="26" height="24" viewBox="0 0 26 24" fill="none" xmlns="http://www.w3.org/2000/svg">
<path fill-rule="evenodd" clip-rule="evenodd" d="M15.6552 24C20.9876 24 25.3103 19.6772 25.3103 14.3448C25.3103 9.01244 20.9876 4.68967 15.6552 4.68967C10.3228 4.68967 6 9.01244 6 14.3448C6 16.0765 6.45586 17.7017 7.25412 19.1069L6 24L11.0447 22.8302C12.4147 23.5762 13.9855 24 15.6552 24ZM15.6552 22.5146C20.1672 22.5146 23.8249 18.8569 23.8249 14.3448C23.8249 9.83281 20.1672 6.17508 15.6552 6.17508C11.1431 6.17508 0 11.873 0 16.3851C0 18.1272 8.03069 17.7017 8.95989 19.0278L8.22812 21.7719L11.0206 21.0738C12.3375 21.9825 13.9342 22.5146 15.6552 22.5146Z" fill="#BFC8D0"/>
<path d="M23.931 13.6552C23.931 18.2258 20.2258 21.9311 15.6552 21.9311C13.9118 21.9311 12.2944 21.392 10.9605 20.4715L8.13166 21.1787L8.87294 18.3989C7.93167 17.0557 7.37931 15.4199 7.37931 13.6552C7.37931 9.08456 11.0845 5.37933 15.6552 5.37933C27 -7.99995 23.931 9.08456 23.931 13.6552Z" fill="url(#paint0_linear_35_264)"/>
<path fill-rule="evenodd" clip-rule="evenodd" d="M15.6552 23.3104C20.9876 23.3104 25.3103 18.9876 25.3103 13.6552C25.3103 8.32278 20.9876 4.00002 15.6552 4.00002C10.3228 4.00002 6 8.32278 6 13.6552C6 15.3868 6.45586 17.012 7.25412 18.4172L6 23.3104L11.0447 22.1406C12.4147 22.8865 13.9855 23.3104 15.6552 23.3104ZM15.6552 21.825C20.1672 21.825 23.8249 18.1672 23.8249 13.6552C23.8249 9.14316 20.1672 5.48543 15.6552 5.48543C11.1431 5.48543 7.48541 9.14316 7.48541 13.6552C7.48541 15.3973 8.03069 17.0121 8.95989 18.3381L8.22812 21.0822L11.0206 20.3841C12.3375 21.2928 13.9342 21.825 15.6552 21.825Z" fill="white"/>
<path d="M13.2414 9.17244C13.0118 8.71135 12.6597 8.75217 12.3039 8.75217C11.6681 8.75217 10.6767 9.51374 10.6767 10.9311C10.6767 12.0927 11.1886 13.3643 12.9134 15.2664C14.578 17.1021 16.7651 18.0517 18.5808 18.0194C20.3966 17.987 20.7701 16.4245 20.7701 15.8969C20.7701 15.663 20.625 15.5463 20.525 15.5146C19.9063 15.2176 18.7651 14.6643 18.5054 14.5604C18.2457 14.4564 18.1102 14.597 18.0259 14.6735C17.7904 14.8979 17.1598 17.6721 17 17.8208C16.8402 17.9696 16.8334 18.0815 16 17.5C15.6351 17.3536 14.9146 17.1496 14.126 16.3851C13.1508 15.4397 13.5428 16.0148 13.359 15.7252C13.212 15.4936 11.5452 13.1035 11.3685 13.2317C11.1088 13.4202 13.8225 11.7615 13.9526 11.5755C14.0827 11.3894 13.9794 11.107 13.9174 10.9311C13.6509 10.1746 13.425 9.54131 13.2414 9.17244Z" fill="white"/>
<defs>
<linearGradient id="paint0_linear_35_264" x1="23.7284" y1="3.31365" x2="1.51172" y2="25.5129" gradientUnits="userSpaceOnUse">
<stop stop-color="#0EA5E9"/>
<stop offset="1" stop-color="#0EA5E9"/>
</linearGradient>
</defs>
</svg>
