<svg width="284" height="153" viewBox="0 0 284 153" fill="none" xmlns="http://www.w3.org/2000/svg">
<path fill-rule="evenodd" clip-rule="evenodd" d="M271.814 23.2792C268.94 15.385 267.504 11.4379 264.87 8.98195C262.553 6.82159 259.612 5.45011 256.468 5.06406C252.894 4.62519 248.947 6.06181 241.053 8.93505L23.0439 88.2837C15.1497 91.157 11.2026 92.5936 8.74664 95.2273C6.58626 97.544 5.21478 100.485 4.82873 103.629C4.38987 107.204 5.82649 111.151 8.69973 119.045L12.1199 128.442C14.9932 136.336 16.4298 140.283 19.0635 142.739C21.3802 144.899 24.3214 146.271 27.4655 146.657C31.0398 147.096 34.9869 145.659 42.881 142.786L260.89 63.4372C268.784 60.564 272.731 59.1274 275.187 56.4936C277.347 54.1769 278.719 51.2358 279.105 48.0917C279.544 44.5174 278.107 40.5703 275.234 32.6761L271.814 23.2792Z" fill="#E6E5EB"/>
<path fill-rule="evenodd" clip-rule="evenodd" d="M15.5176 152.396L15.63 152.704L21.2681 150.652C28.5338 148.008 32.28 139.974 29.6355 132.708L15.5404 137.838C16.477 140.412 16.9453 141.698 17.1572 142.839C17.7814 146.198 17.1471 149.572 15.5176 152.396Z" fill="#E6E5EB"/>
<path d="M23.2907 113.734L30.1236 111.247L29.6637 109.984L24.2348 111.959L20.598 101.967L19.1939 102.478L23.2907 113.734ZM35.2945 109.533C35.7885 109.353 36.2104 109.129 36.5602 108.86C36.9133 108.585 37.1966 108.287 37.4102 107.968C37.6219 107.643 37.7705 107.316 37.856 106.984C37.9448 106.646 37.9735 106.32 37.9422 106.008L37.9351 105.939L36.5779 106.433L36.5722 106.515C36.56 106.708 36.4922 106.918 36.3689 107.146C36.2456 107.373 36.0624 107.59 35.8195 107.796C35.5765 108.002 35.2652 108.174 34.8856 108.313C34.376 108.498 33.8933 108.547 33.4375 108.46C32.9798 108.367 32.5729 108.147 32.2168 107.8C31.8588 107.447 31.571 106.972 31.3533 106.374L31.1574 105.836C30.9284 105.207 30.8394 104.638 30.8903 104.131C30.9412 103.624 31.1037 103.196 31.3778 102.849C31.6552 102.495 32.0201 102.236 32.4726 102.071C32.925 101.906 33.3642 101.867 33.7902 101.954C34.2143 102.035 34.6028 102.253 34.9556 102.607C35.3084 102.962 35.605 103.469 35.8453 104.13L36.0412 104.668L36.3515 103.433L30.3063 105.633L30.701 106.717L37.4403 104.264L37.2473 103.734C36.9426 102.897 36.5275 102.218 36.0021 101.696C35.4799 101.168 34.8789 100.827 34.199 100.674C33.5243 100.519 32.8047 100.581 32.0403 100.859C31.2811 101.135 30.6853 101.561 30.2528 102.137C29.8204 102.712 29.5674 103.385 29.4939 104.153C29.4256 104.92 29.5494 105.738 29.8655 106.606L29.8684 106.614C30.1882 107.493 30.6199 108.202 31.1632 108.74C31.7099 109.271 32.3337 109.609 33.0344 109.755C33.7403 109.898 34.4937 109.824 35.2945 109.533ZM43.9448 106.287C44.0801 106.238 44.2098 106.182 44.3341 106.119C44.4585 106.056 44.5818 105.991 44.7043 105.923L44.2841 104.768C44.1631 104.824 44.0593 104.871 43.9728 104.908C43.8915 104.943 43.791 104.983 43.6714 105.026C43.2346 105.185 42.8838 105.192 42.619 105.047C42.3523 104.897 42.1291 104.575 41.9493 104.081L40.2175 99.3228L42.0583 98.6528L41.6495 97.5295L39.8086 98.1996L39.0165 96.0233L37.6125 96.5343L38.4046 98.7106L37.0786 99.1932L37.4874 100.316L38.8134 99.8338L40.6701 104.935C40.9616 105.736 41.3632 106.241 41.8748 106.449C42.3916 106.655 43.0816 106.601 43.9448 106.287ZM44.8027 98.1839L45.9259 97.7751L44.4743 93.2772L43.0235 93.8052L44.8027 98.1839ZM54.4205 102.572C55.0601 102.339 55.5934 102.024 56.0202 101.627C56.4522 101.229 56.7473 100.785 56.9055 100.298C57.0619 99.8053 57.0492 99.3093 56.8675 98.8101L56.8618 98.7945C56.6423 98.1913 56.2722 97.7812 55.7516 97.5644C55.2362 97.3456 54.5483 97.2839 53.6878 97.3792L52.2794 97.5385C51.9215 97.5745 51.6187 97.5758 51.371 97.5423C51.1232 97.5088 50.9234 97.4372 50.7716 97.3276C50.6198 97.2179 50.5099 97.0695 50.4417 96.8823L50.4361 96.8667C50.3452 96.6171 50.3411 96.3712 50.4238 96.1292C50.5065 95.8871 50.6589 95.6667 50.881 95.4681C51.1013 95.2642 51.3778 95.1017 51.7106 94.9806C52.2202 94.7951 52.6715 94.7487 53.0644 94.8412C53.4573 94.9338 53.7586 95.1304 53.9681 95.431L55.3019 94.9455C55.073 94.5106 54.7566 94.1753 54.3527 93.9395C53.9541 93.7018 53.4929 93.5752 52.969 93.5597C52.4485 93.5372 51.8944 93.6329 51.3068 93.8467C50.7139 94.0625 50.2197 94.3631 49.8241 94.7486C49.4285 95.134 49.1601 95.5615 49.0189 96.031C48.8828 96.4986 48.9 96.9664 49.0703 97.4345L49.0732 97.4423C49.2189 97.8427 49.4263 98.1617 49.6954 98.3995C49.9626 98.632 50.3021 98.7882 50.7139 98.8679C51.1239 98.9425 51.6142 98.9466 52.1848 98.8803L53.601 98.7182C54.1664 98.6537 54.6005 98.6812 54.9031 98.8007C55.2038 98.9151 55.4062 99.1152 55.5103 99.4012L55.516 99.4168C55.6087 99.6717 55.6079 99.9281 55.5134 100.186C55.417 100.439 55.244 100.676 54.9945 100.896C54.7482 101.11 54.4353 101.285 54.0557 101.424C53.5201 101.619 53.047 101.67 52.6366 101.578C52.2262 101.486 51.9004 101.286 51.6592 100.98L50.2708 101.485C50.4912 101.929 50.8069 102.27 51.2178 102.509C51.634 102.747 52.1162 102.874 52.6647 102.893C53.2112 102.906 53.7965 102.799 54.4205 102.572ZM67.4936 97.8134C67.8836 97.6714 68.2233 97.4801 68.5126 97.2394C68.8018 96.9986 69.0367 96.7217 69.2172 96.4087C69.3959 96.0905 69.5142 95.7441 69.5722 95.3696L69.697 95.3242L70.1854 96.6659L71.5426 96.1719L67.267 84.4248L65.9098 84.9188L67.6075 89.5833L67.4827 89.6287C67.2221 89.382 66.9195 89.1977 66.5748 89.0758C66.2301 88.9539 65.8644 88.8957 65.4776 88.901C65.0942 88.8992 64.7101 88.9683 64.3253 89.1084C63.6129 89.3677 63.0567 89.7733 62.6569 90.3251C62.2623 90.8751 62.0377 91.5281 61.9831 92.2841C61.9284 93.0401 62.0611 93.8575 62.3809 94.7363L62.3866 94.7519C62.7046 95.6256 63.1284 96.337 63.6581 96.8862C64.1859 97.4302 64.7803 97.7851 65.4413 97.9509C66.1023 98.1166 66.7864 98.0708 67.4936 97.8134ZM67.3684 96.4986C66.8588 96.6841 66.374 96.7192 65.9139 96.604C65.4572 96.4817 65.0448 96.2225 64.6769 95.8264C64.3122 95.4232 64.0116 94.8966 63.775 94.2466L63.7694 94.231C63.5309 93.5758 63.4227 92.9791 63.4447 92.4411C63.472 91.9012 63.6222 91.4402 63.8954 91.0581C64.1718 90.6689 64.5649 90.3815 65.0745 90.1961C65.5841 90.0106 66.0699 89.978 66.5318 90.0985C66.9938 90.2189 67.4087 90.4772 67.7767 90.8732C68.1446 91.2693 68.4469 91.7924 68.6835 92.4424L68.6892 92.458C68.9238 93.1028 69.0285 93.6978 69.0031 94.2429C68.9759 94.7829 68.824 95.2474 68.5475 95.6366C68.2711 96.0258 67.878 96.3131 67.3684 96.4986ZM77.6573 94.1141C78.4581 93.8227 79.0837 93.3977 79.5341 92.8392C79.9826 92.2755 80.2446 91.6118 80.32 90.8483C80.4006 90.0828 80.2782 89.2529 79.9526 88.3584L79.9469 88.3428C79.6195 87.4432 79.1789 86.7261 78.6251 86.1916C78.0765 85.6551 77.4502 85.3177 76.7462 85.1794C76.0421 85.0411 75.2897 85.1177 74.4889 85.4091C73.6933 85.6987 73.0677 86.1237 72.6121 86.6841C72.1617 87.2426 71.8962 87.9046 71.8155 88.67C71.7401 89.4336 71.8661 90.2652 72.1936 91.1648L72.1992 91.1804C72.5248 92.0749 72.9618 92.7903 73.5104 93.3267C74.0642 93.8613 74.6941 94.2003 75.4 94.3439C76.1092 94.4803 76.8616 94.4037 77.6573 94.1141ZM77.2201 92.9129C76.6896 93.106 76.1944 93.1449 75.7344 93.0297C75.2743 92.9144 74.8603 92.6588 74.4923 92.2627C74.1296 91.8647 73.828 91.3355 73.5877 90.6751L73.582 90.6595C73.3397 89.9939 73.2296 89.392 73.2517 88.854C73.2789 88.3141 73.4327 87.8547 73.713 87.4759C73.9913 87.0919 74.3957 86.8034 74.9261 86.6104C75.4565 86.4173 75.9518 86.3784 76.4118 86.4936C76.87 86.6036 77.2804 86.8576 77.6432 87.2556C78.0111 87.6517 78.3162 88.1826 78.5585 88.8482L78.5642 88.8638C78.8046 89.5242 78.9111 90.1244 78.8838 90.6643C78.8618 91.2023 78.7116 91.6634 78.4332 92.0473C78.1549 92.4313 77.7505 92.7199 77.2201 92.9129ZM88.1102 90.1418L89.4674 89.6478L86.4069 81.2392L85.0497 81.7332L88.1102 90.1418ZM85.1456 79.8609C85.4056 79.7662 85.5935 79.5948 85.7092 79.3466C85.8231 79.0931 85.8337 78.839 85.7409 78.5842C85.6463 78.3242 85.4749 78.1363 85.2266 78.0205C84.9784 77.9048 84.7242 77.8942 84.4642 77.9888C84.2094 78.0816 84.0215 78.253 83.9006 78.5032C83.7848 78.7514 83.7742 79.0055 83.8689 79.2655C83.9616 79.5204 84.1331 79.7082 84.3832 79.8292C84.6367 79.9431 84.8908 79.9536 85.1456 79.8609ZM95.036 87.6916C95.1712 87.6424 95.301 87.5863 95.4253 87.5234C95.5497 87.4605 95.673 87.395 95.7955 87.3269L95.3753 86.1724C95.2543 86.2283 95.1505 86.2749 95.064 86.3122C94.9827 86.3477 94.8822 86.3872 94.7626 86.4308C94.3258 86.5897 93.975 86.5967 93.7102 86.4516C93.4435 86.3014 93.2203 85.9792 93.0405 85.4852L91.3087 80.7271L93.1495 80.0571L92.7407 78.9339L90.8998 79.6039L90.1077 77.4276L88.7037 77.9387L89.4958 80.1149L88.1698 80.5975L88.5786 81.7208L89.9046 81.2381L91.7613 86.3395C92.0528 87.1403 92.4544 87.6449 92.966 87.8532C93.4828 88.0597 94.1728 88.0058 95.036 87.6916ZM97.0359 82.653L98.3307 82.1817L95.7265 74.6141L94.1664 75.1819L97.0359 82.653ZM99.1049 86.299C99.4221 86.1835 99.6426 85.9884 99.7664 85.7137C99.8954 85.4371 99.9022 85.1402 99.7867 84.823C99.6694 84.5006 99.4724 84.2749 99.1958 84.1459C98.9244 84.015 98.63 84.0073 98.3128 84.1227C97.9956 84.2382 97.7725 84.4342 97.6435 84.7109C97.5146 84.9875 97.5087 85.287 97.6261 85.6094C97.7415 85.9266 97.9376 86.1497 98.2142 86.2787C98.4908 86.4077 98.7877 86.4144 99.1049 86.299ZM107.47 83.0953L108.874 82.5842L104.778 71.3286L103.373 71.8396L107.47 83.0953ZM109.638 74.5858L110.761 74.177L109.309 69.6791L107.859 70.2072L109.638 74.5858ZM116.316 79.8758L117.673 79.3818L115.776 74.1713C115.633 73.7761 115.585 73.387 115.634 73.004C115.687 72.614 115.823 72.2697 116.045 71.9713C116.271 71.671 116.566 71.4546 116.93 71.3222C117.284 71.1935 117.615 71.1494 117.924 71.19C118.239 71.2286 118.512 71.3472 118.743 71.5457C118.977 71.7371 119.155 71.9992 119.276 72.3321L121.355 78.0418L122.712 77.5478L120.744 72.1423C120.614 71.7835 120.576 71.4291 120.631 71.0792C120.685 70.7242 120.825 70.4052 121.052 70.1224C121.278 69.8396 121.587 69.6273 121.977 69.4853C122.372 69.3415 122.725 69.2924 123.036 69.3382C123.346 69.3788 123.613 69.5141 123.838 69.7443C124.066 69.9674 124.256 70.287 124.408 70.703L126.409 76.2021L127.766 75.7081L125.651 69.897C125.437 69.3094 125.153 68.8506 124.797 68.5207C124.439 68.1856 124.022 67.9843 123.544 67.9168C123.071 67.8475 122.548 67.9169 121.976 68.1251C121.592 68.2651 121.253 68.4591 120.96 68.7069C120.671 68.9477 120.44 69.2262 120.266 69.5425C120.091 69.8537 119.982 70.1849 119.939 70.5362L119.814 70.5816C119.578 70.3377 119.311 70.1463 119.013 70.0074C118.714 69.8633 118.39 69.7837 118.043 69.7687C117.696 69.7537 117.333 69.8153 116.953 69.9534C116.402 70.1541 115.977 70.4501 115.678 70.8417C115.384 71.2314 115.225 71.6865 115.203 72.207L115.078 72.2524L114.612 70.9732L113.255 71.4672L116.316 79.8758ZM134.74 73.17L136.097 72.676L133.036 64.2674L131.679 64.7614L134.74 73.17ZM131.775 62.8891C132.035 62.7945 132.223 62.6231 132.339 62.3748C132.453 62.1214 132.463 61.8672 132.37 61.6124C132.276 61.3524 132.104 61.1645 131.856 61.0488C131.608 60.933 131.354 60.9225 131.094 61.0171C130.839 61.1098 130.651 61.2813 130.53 61.5314C130.414 61.7797 130.404 62.0338 130.498 62.2938C130.591 62.5486 130.763 62.7365 131.013 62.8574C131.266 62.9713 131.52 62.9819 131.775 62.8891ZM138.655 71.7448L140.013 71.2508L138.201 66.2743C138.021 65.7803 137.956 65.3243 138.004 64.9063C138.057 64.4865 138.212 64.1207 138.47 63.8091C138.728 63.4975 139.08 63.2602 139.527 63.0975C140.198 62.8533 140.759 62.8581 141.211 63.1119C141.666 63.3585 142.031 63.8615 142.308 64.6207L144.17 69.7376L145.527 69.2436L143.546 63.7991C143.182 62.8007 142.648 62.1264 141.944 61.7763C141.242 61.419 140.419 61.4127 139.472 61.7571C138.853 61.9824 138.389 62.2927 138.08 62.688C137.768 63.0781 137.587 63.5356 137.537 64.0604L137.412 64.1059L136.952 62.8422L135.595 63.3362L138.655 71.7448ZM154.84 66.0219C155.22 65.8837 155.549 65.7049 155.829 65.4855C156.106 65.2608 156.332 64.999 156.506 64.7002C156.685 64.3994 156.809 64.0687 156.878 63.7079L157.002 63.6625L157.454 64.9027L158.811 64.4087L156.716 58.6522C156.504 58.0698 156.197 57.616 155.796 57.2908C155.399 56.9586 154.92 56.7677 154.36 56.7183C153.805 56.6669 153.185 56.7661 152.499 57.0159C151.901 57.2336 151.402 57.5212 151.002 57.8788C150.6 58.2311 150.311 58.6276 150.136 59.0683C149.964 59.5019 149.922 59.953 150.01 60.4215L150.02 60.4711L151.377 59.9771L151.376 59.9509C151.366 59.5835 151.49 59.2528 151.748 58.9586C152.004 58.6593 152.385 58.4178 152.889 58.2342C153.518 58.0052 154.039 57.9717 154.451 58.1338C154.867 58.2887 155.169 58.6262 155.359 59.1462L156.313 61.7671C156.458 62.1675 156.485 62.5641 156.392 62.9571C156.305 63.3481 156.116 63.7025 155.825 64.0203C155.533 64.3329 155.155 64.5734 154.692 64.7419C154.203 64.9198 153.755 64.9504 153.348 64.8337C152.938 64.7119 152.656 64.4377 152.501 64.0113L152.495 63.9957C152.344 63.5797 152.372 63.2043 152.58 62.8695C152.793 62.5328 153.213 62.2299 153.839 61.9607L156.696 60.7088L156.301 59.6246L153.281 60.9361C152.644 61.2091 152.133 61.5302 151.75 61.8996C151.366 62.269 151.12 62.6766 151.011 63.1225C150.901 63.5631 150.936 64.0331 151.118 64.5323L151.124 64.5479C151.309 65.0575 151.592 65.455 151.973 65.7405C152.359 66.024 152.799 66.1906 153.294 66.2401C153.794 66.2877 154.31 66.2149 154.84 66.0219ZM165.784 61.8706L167.142 61.3767L165.245 56.1661C165.101 55.7709 165.054 55.3818 165.103 54.9989C165.155 54.6088 165.292 54.2646 165.513 53.9662C165.74 53.6659 166.035 53.4495 166.399 53.317C166.752 53.1883 167.084 53.1442 167.393 53.1848C167.708 53.2235 167.98 53.3421 168.212 53.5406C168.446 53.732 168.624 53.9941 168.745 54.3269L170.823 60.0366L172.181 59.5426L170.213 54.1371C170.082 53.7783 170.045 53.424 170.1 53.0741C170.153 52.719 170.293 52.4001 170.52 52.1173C170.747 51.8345 171.056 51.6221 171.446 51.4801C171.841 51.3363 172.194 51.2873 172.505 51.333C172.814 51.3736 173.081 51.509 173.307 51.7392C173.535 51.9622 173.725 52.2818 173.876 52.6978L175.878 58.1969L177.235 57.7029L175.12 51.8918C174.906 51.3042 174.621 50.8454 174.266 50.5155C173.908 50.1804 173.49 49.9791 173.012 49.9117C172.54 49.8423 172.017 49.9117 171.445 50.1199C171.06 50.26 170.722 50.4539 170.429 50.7018C170.14 50.9425 169.908 51.221 169.735 51.5374C169.56 51.8485 169.451 52.1798 169.408 52.5311L169.283 52.5765C169.047 52.3326 168.78 52.1412 168.482 52.0023C168.182 51.8582 167.859 51.7786 167.512 51.7636C167.165 51.7485 166.801 51.8101 166.422 51.9483C165.871 52.1489 165.445 52.445 165.146 52.8365C164.852 53.2262 164.694 53.6813 164.672 54.2019L164.547 54.2473L164.081 52.9681L162.724 53.4621L165.784 61.8706ZM183.17 55.7105C183.664 55.5307 184.086 55.3065 184.436 55.0378C184.789 54.7621 185.072 54.4646 185.286 54.1454C185.498 53.821 185.646 53.4931 185.732 53.1617C185.821 52.8231 185.849 52.4976 185.818 52.1851L185.811 52.117L184.454 52.611L184.448 52.6926C184.436 52.8855 184.368 53.0956 184.245 53.3231C184.121 53.5505 183.938 53.7674 183.695 53.9736C183.452 54.1798 183.141 54.352 182.761 54.4901C182.252 54.6756 181.769 54.7247 181.313 54.6374C180.856 54.5448 180.449 54.3249 180.093 53.9775C179.735 53.6249 179.447 53.1496 179.229 52.5516L179.033 52.0133C178.804 51.3841 178.715 50.8159 178.766 50.3085C178.817 49.8012 178.98 49.374 179.254 49.0269C179.531 48.6727 179.896 48.4133 180.348 48.2486C180.801 48.0839 181.24 48.0448 181.666 48.1312C182.09 48.2124 182.479 48.4302 182.831 48.7847C183.184 49.1392 183.481 49.6467 183.721 50.3071L183.917 50.8453L184.227 49.6105L178.182 51.8108L178.577 52.895L185.316 50.4421L185.123 49.9117C184.818 49.0744 184.403 48.3952 183.878 47.8738C183.356 47.3454 182.755 47.0047 182.075 46.8517C181.4 46.6968 180.681 46.7585 179.916 47.0367C179.157 47.3131 178.561 47.739 178.129 48.3145C177.696 48.89 177.443 49.5622 177.37 50.3309C177.301 51.0978 177.425 51.9155 177.741 52.7839L177.744 52.7917C178.064 53.6705 178.496 54.3791 179.039 54.9174C179.586 55.4487 180.21 55.787 180.91 55.9324C181.616 56.076 182.37 56.002 183.17 55.7105ZM192.297 52.3888C192.791 52.209 193.212 51.9848 193.562 51.7162C193.915 51.4404 194.199 51.143 194.412 50.8238C194.624 50.4994 194.773 50.1714 194.858 49.84C194.947 49.5015 194.976 49.1759 194.944 48.8634L194.937 48.7953L193.58 49.2893L193.574 49.3709C193.562 49.5638 193.494 49.774 193.371 50.0014C193.248 50.2289 193.065 50.4457 192.822 50.6519C192.579 50.8581 192.267 51.0303 191.888 51.1685C191.378 51.3539 190.895 51.403 190.44 51.3157C189.982 51.2232 189.575 51.0032 189.219 50.6558C188.861 50.3032 188.573 49.8279 188.355 49.2299L188.16 48.6917C187.93 48.0625 187.841 47.4942 187.892 46.9869C187.943 46.4796 188.106 46.0523 188.38 45.7052C188.657 45.351 189.022 45.0916 189.475 44.9269C189.927 44.7623 190.366 44.7231 190.792 44.8095C191.216 44.8907 191.605 45.1086 191.958 45.4631C192.31 45.8175 192.607 46.325 192.847 46.9854L193.043 47.5236L193.354 46.2888L187.308 48.4891L187.703 49.5733L194.442 47.1204L194.249 46.59C193.945 45.7528 193.53 45.0735 193.004 44.5522C192.482 44.0237 191.881 43.683 191.201 43.53C190.526 43.3752 189.807 43.4368 189.042 43.7151C188.283 43.9914 187.687 44.4173 187.255 44.9928C186.822 45.5684 186.57 46.2405 186.496 47.0093C186.428 47.7762 186.552 48.5938 186.868 49.4622L186.87 49.47C187.19 50.3488 187.622 51.0574 188.165 51.5958C188.712 52.127 189.336 52.4654 190.036 52.6108C190.742 52.7543 191.496 52.6803 192.297 52.3888ZM200.947 49.1432C201.082 49.094 201.212 49.0379 201.336 48.975C201.461 48.9121 201.584 48.8466 201.706 48.7785L201.286 47.624C201.165 47.6799 201.061 47.7265 200.975 47.7638C200.894 47.7993 200.793 47.8388 200.674 47.8824C200.237 48.0413 199.886 48.0483 199.621 47.9032C199.354 47.753 199.131 47.4308 198.951 46.9368L197.22 42.1787L199.06 41.5087L198.652 40.3855L196.811 41.0555L196.019 38.8792L194.615 39.3902L195.407 41.5665L194.081 42.0491L194.489 43.1724L195.816 42.6897L197.672 47.791C197.964 48.5919 198.365 49.0964 198.877 49.3048C199.394 49.5113 200.084 49.4574 200.947 49.1432ZM203.771 48.0446L205.129 47.5506L202.068 39.142L200.711 39.636L203.771 48.0446ZM200.807 37.7637C201.067 37.669 201.255 37.4976 201.37 37.2494C201.484 36.9959 201.495 36.7418 201.402 36.487C201.307 36.227 201.136 36.0391 200.888 35.9233C200.639 35.8076 200.385 35.797 200.125 35.8916C199.871 35.9844 199.683 36.1558 199.562 36.406C199.446 36.6542 199.435 36.9083 199.53 37.1683C199.623 37.4231 199.794 37.611 200.044 37.732C200.298 37.8459 200.552 37.8564 200.807 37.7637ZM207.687 46.6194L209.044 46.1254L207.233 41.1488C207.053 40.6548 206.987 40.1988 207.035 39.7809C207.089 39.361 207.244 38.9953 207.502 38.6836C207.759 38.372 208.112 38.1348 208.559 37.972C209.23 37.7279 209.791 37.7327 210.242 37.9864C210.697 38.2331 211.063 38.736 211.339 39.4952L213.202 44.6122L214.559 44.1182L212.577 38.6736C212.214 37.6752 211.68 37.0009 210.975 36.6508C210.274 36.2936 209.45 36.2872 208.504 36.6317C207.885 36.8569 207.421 37.1672 207.111 37.5625C206.8 37.9527 206.619 38.4102 206.568 38.935L206.444 38.9804L205.984 37.7168L204.626 38.2108L207.687 46.6194ZM221.558 44.9274C222.323 44.6492 222.939 44.2805 223.408 43.8212C223.879 43.3672 224.181 42.8539 224.314 42.2813C224.452 41.7069 224.408 41.1076 224.181 40.4836L221.163 32.192L219.806 32.686L220.311 34.0744L220.217 34.1085C219.93 33.8537 219.615 33.6593 219.272 33.5251C218.934 33.3891 218.576 33.3192 218.197 33.3155C217.819 33.3118 217.432 33.3819 217.037 33.5258C216.304 33.7926 215.737 34.1994 215.335 34.7461C214.931 35.2875 214.696 35.9181 214.628 36.6377C214.563 37.3502 214.674 38.0991 214.96 38.8843L214.965 38.8999C215.251 39.6851 215.648 40.3299 216.155 40.8342C216.663 41.3385 217.242 41.6693 217.894 41.8265C218.55 41.9767 219.239 41.9202 219.961 41.6571C220.346 41.5171 220.685 41.3319 220.978 41.1015C221.269 40.866 221.508 40.5908 221.694 40.2758C221.879 39.9609 222.005 39.6179 222.07 39.2467L222.195 39.2013L222.814 40.9017C223.039 41.5205 223 42.0765 222.696 42.5697C222.4 43.0663 221.875 43.4517 221.121 43.7262C220.518 43.9457 219.996 44.0177 219.557 43.9422C219.119 43.8719 218.806 43.6914 218.617 43.4007L218.607 43.3957L217.203 43.9068L217.19 43.9202C217.429 44.3514 217.76 44.6846 218.181 44.9199C218.609 45.1585 219.11 45.2796 219.682 45.2833C220.257 45.2921 220.882 45.1735 221.558 44.9274ZM219.821 40.348C219.301 40.5373 218.815 40.5786 218.364 40.4718C217.916 40.358 217.519 40.1229 217.171 39.7666C216.829 39.4083 216.556 38.9509 216.354 38.3945L216.348 38.3789C216.145 37.8225 216.059 37.2944 216.089 36.7947C216.125 36.293 216.277 35.8547 216.547 35.4797C216.822 35.1028 217.22 34.8197 217.74 34.6305C218.26 34.4412 218.749 34.4016 219.207 34.5116C219.67 34.6197 220.079 34.8537 220.434 35.2133C220.794 35.5711 221.075 36.0282 221.278 36.5847L221.283 36.6003C221.486 37.1567 221.563 37.685 221.516 38.1852C221.473 38.6835 221.309 39.123 221.024 39.5037C220.742 39.8773 220.341 40.1587 219.821 40.348ZM33.5133 133.593C33.9241 133.444 34.2708 133.256 34.5535 133.029C34.8414 132.801 35.0644 132.54 35.2227 132.247C35.3791 131.948 35.471 131.626 35.4983 131.281L35.6231 131.235L36.0802 132.491L37.4375 131.997L34.377 123.588L33.0197 124.082L34.831 129.059C34.9654 129.428 35.0372 129.779 35.0462 130.111C35.0586 130.437 35.0065 130.738 34.8898 131.016C34.7712 131.289 34.5888 131.532 34.3425 131.745C34.1014 131.957 33.7963 132.13 33.4271 132.264C32.7563 132.508 32.2055 132.5 31.7747 132.238C31.3491 131.975 30.9991 131.467 30.7246 130.713L28.8622 125.596L27.505 126.09L29.4867 131.534C29.727 132.195 30.039 132.72 30.4225 133.11C30.8094 133.494 31.2631 133.729 31.7837 133.816C32.3023 133.898 32.8789 133.824 33.5133 133.593ZM39.9725 131.074L41.3297 130.58L39.5184 125.604C39.3386 125.11 39.2728 124.654 39.3209 124.236C39.3742 123.816 39.5296 123.45 39.7872 123.139C40.0448 122.827 40.3972 122.59 40.8444 122.427C41.5152 122.183 42.0764 122.188 42.528 122.441C42.9829 122.688 43.3485 123.191 43.6248 123.95L45.4872 129.067L46.8445 128.573L44.8628 123.129C44.4994 122.13 43.9655 121.456 43.2609 121.106C42.5596 120.749 41.7358 120.742 40.7894 121.087C40.1706 121.312 39.7064 121.622 39.3968 122.018C39.0854 122.408 38.9044 122.865 38.854 123.39L38.7292 123.435L38.2693 122.172L36.912 122.666L39.9725 131.074ZM52.3117 126.654C52.4469 126.605 52.5767 126.549 52.701 126.486C52.8253 126.423 52.9487 126.357 53.0711 126.289L52.651 125.135C52.5299 125.191 52.4262 125.237 52.3397 125.275C52.2584 125.31 52.1579 125.35 52.0383 125.393C51.6015 125.552 51.2507 125.559 50.9859 125.414C50.7192 125.264 50.4959 124.942 50.3161 124.448L48.5843 119.689L50.4252 119.019L50.0163 117.896L48.1755 118.566L47.3834 116.39L45.9794 116.901L46.7715 119.077L45.4454 119.56L45.8543 120.683L47.1803 120.2L49.037 125.302C49.3285 126.103 49.73 126.607 50.2417 126.816C50.7585 127.022 51.4485 126.968 52.3117 126.654ZM55.1361 125.555L56.4933 125.061L53.4328 116.653L52.0756 117.147L55.1361 125.555ZM52.1715 115.274C52.4315 115.18 52.6194 115.008 52.7351 114.76C52.849 114.507 52.8596 114.252 52.7668 113.998C52.6722 113.738 52.5007 113.55 52.2525 113.434C52.0042 113.318 51.7501 113.308 51.4901 113.402C51.2353 113.495 51.0474 113.667 50.9265 113.917C50.8107 114.165 50.8001 114.419 50.8948 114.679C50.9875 114.934 51.159 115.122 51.4091 115.243C51.6626 115.357 51.9167 115.367 52.1715 115.274ZM59.1298 124.102L60.487 123.608L56.2114 111.861L54.8542 112.355L59.1298 124.102ZM67.5852 121.024L68.9424 120.53L67.1311 115.554C66.9513 115.06 66.8854 114.604 66.9335 114.186C66.9868 113.766 67.1423 113.4 67.3998 113.088C67.6574 112.777 68.0098 112.54 68.457 112.377C69.1278 112.133 69.689 112.137 70.1406 112.391C70.5955 112.638 70.9611 113.141 71.2375 113.9L73.0999 119.017L74.4571 118.523L72.4755 113.078C72.1121 112.08 71.5781 111.406 70.8735 111.056C70.1723 110.698 69.3485 110.692 68.402 111.036C67.7832 111.262 67.319 111.572 67.0095 111.967C66.698 112.357 66.5171 112.815 66.4666 113.34L66.3418 113.385L65.8819 112.122L64.5247 112.616L67.5852 121.024ZM80.4236 116.519C81.2244 116.228 81.85 115.803 82.3004 115.244C82.7489 114.681 83.0109 114.017 83.0863 113.253C83.167 112.488 83.0445 111.658 82.7189 110.763L82.7133 110.748C82.3858 109.848 81.9452 109.131 81.3914 108.597C80.8428 108.06 80.2165 107.723 79.5125 107.584C78.8085 107.446 78.0561 107.523 77.2552 107.814C76.4596 108.104 75.834 108.529 75.3784 109.089C74.928 109.648 74.6625 110.31 74.5819 111.075C74.5064 111.839 74.6325 112.67 74.9599 113.57L74.9656 113.585C75.2911 114.48 75.7282 115.195 76.2768 115.732C76.8306 116.266 77.4604 116.605 78.1663 116.749C78.8756 116.885 79.628 116.809 80.4236 116.519ZM79.9864 115.318C79.456 115.511 78.9607 115.55 78.5007 115.435C78.0406 115.319 77.6266 115.064 77.2587 114.668C76.8959 114.27 76.5944 113.741 76.354 113.08L76.3483 113.065C76.1061 112.399 75.996 111.797 76.018 111.259C76.0453 110.719 76.199 110.26 76.4793 109.881C76.7577 109.497 77.162 109.208 77.6924 109.015C78.2229 108.822 78.7181 108.783 79.1782 108.899C79.6363 109.009 80.0468 109.263 80.4095 109.661C80.7775 110.057 81.0826 110.588 81.3248 111.253L81.3305 111.269C81.5709 111.929 81.6774 112.529 81.6502 113.069C81.6281 113.607 81.4779 114.068 81.1995 114.452C80.9212 114.836 80.5168 115.125 79.9864 115.318ZM89.8618 113.084C90.6626 112.792 91.2883 112.367 91.7387 111.809C92.1872 111.245 92.4491 110.582 92.5246 109.818C92.6052 109.053 92.4827 108.223 92.1572 107.328L92.1515 107.313C91.8241 106.413 91.3834 105.696 90.8296 105.161C90.2811 104.625 89.6547 104.288 88.9507 104.149C88.2467 104.011 87.4943 104.087 86.6935 104.379C85.8978 104.669 85.2722 105.094 84.8166 105.654C84.3662 106.212 84.1007 106.874 84.0201 107.64C83.9447 108.403 84.0707 109.235 84.3981 110.135L84.4038 110.15C84.7293 111.045 85.1664 111.76 85.715 112.297C86.2688 112.831 86.8986 113.17 87.6046 113.314C88.3138 113.45 89.0662 113.374 89.8618 113.084ZM89.4246 111.883C88.8942 112.076 88.399 112.115 87.9389 111.999C87.4788 111.884 87.0648 111.629 86.6969 111.232C86.3342 110.835 86.0326 110.305 85.7922 109.645L85.7865 109.629C85.5443 108.964 85.4342 108.362 85.4562 107.824C85.4835 107.284 85.6373 106.825 85.9175 106.446C86.1959 106.062 86.6003 105.773 87.1307 105.58C87.6611 105.387 88.1563 105.348 88.6164 105.463C89.0745 105.573 89.485 105.827 89.8477 106.225C90.2157 106.622 90.5208 107.152 90.7631 107.818L90.7687 107.834C91.0091 108.494 91.1157 109.094 91.0884 109.634C91.0663 110.172 90.9161 110.633 90.6378 111.017C90.3594 111.401 89.955 111.69 89.4246 111.883ZM95.7906 110.758L97.1479 110.264L95.3365 105.288C95.1567 104.794 95.0909 104.338 95.139 103.92C95.1923 103.5 95.3477 103.134 95.6053 102.823C95.8629 102.511 96.2153 102.274 96.6625 102.111C97.3333 101.867 97.8945 101.872 98.3461 102.125C98.801 102.372 99.1666 102.875 99.4429 103.634L101.305 108.751L102.663 108.257L100.681 102.812C100.318 101.814 99.7836 101.14 99.079 100.79C98.3777 100.432 97.5539 100.426 96.6075 100.771C95.9887 100.996 95.5245 101.306 95.2149 101.701C94.9035 102.092 94.7225 102.549 94.6721 103.074L94.5473 103.119L94.0874 101.856L92.7301 102.35L95.7906 110.758ZM106.256 107.038C106.536 106.935 106.74 106.75 106.865 106.48C106.989 106.205 107.001 105.93 106.901 105.654C106.798 105.374 106.613 105.17 106.343 105.045C106.073 104.919 105.798 104.907 105.518 105.01C105.242 105.11 105.039 105.296 104.908 105.567C104.782 105.837 104.77 106.112 104.873 106.393C104.973 106.668 105.159 106.871 105.43 107.002C105.705 107.126 105.98 107.138 106.256 107.038Z" fill="black"/>
</svg>
